<?xml version="1.0" encoding="utf-8"?>
<!-- Generator: Adobe Illustrator 16.0.0, SVG Export Plug-In . SVG Version: 6.00 Build 0)  -->
<!DOCTYPE svg PUBLIC "-//W3C//DTD SVG 1.1//EN" "http://www.w3.org/Graphics/SVG/1.1/DTD/svg11.dtd">
<svg version="1.1" xmlns="http://www.w3.org/2000/svg" xmlns:xlink="http://www.w3.org/1999/xlink" x="0px" y="0px" width="230px"
	 height="230px" viewBox="0 0 230 230" enable-background="new 0 0 230 230" xml:space="preserve">
<g id="Capa_1">
</g>
<g id="Modo_de_aislamiento">
	<rect fill-rule="evenodd" clip-rule="evenodd" fill="#FFFFFF" width="230" height="230"/>
	<g>
		<path fill-rule="evenodd" clip-rule="evenodd" fill="#A5CD39" d="M34.148,122.238c0.141-2.481-0.86-6.623-3.423-9.304
			c-3.376-3.513-3.922-5.554-3.922-5.554s-2.084,4.565-0.657,10.467c1.424,5.908,5.702,7.257,6.114,7.407
			c0.275,0.097,0.702,0.269,1.028,0.596c0.229,0.228,0.451,0.525,0.663,0.87C33.686,124.736,34.161,123.131,34.148,122.238
			 M32.857,123.841c-0.209-0.718-1.715-3.887-2.581-6.64c-0.87-2.749-3.062-7.16-3.062-7.16s2.302,3.715,3.517,6.753
			c1.202,3.038,2.551,8.104,2.551,8.104S33.066,124.566,32.857,123.841"/>
		<path fill-rule="evenodd" clip-rule="evenodd" fill="#A5CD39" d="M46.125,110.832l-0.121-0.444c0,0-0.629,5.864-4.411,10.309
			c-4.096,4.802-8.463,9.053-8.463,9.053s4.968-6.116,6.675-8.03c5.463-6.12,6.199-11.331,6.199-11.331l-0.139,0.314
			c-0.144,0.56-0.471,1.009-0.718,1.281c-0.807,1.042-6.035,4.338-7.882,7.002c-1.183,1.711-2.061,4.134-2.577,5.822
			c-0.469,2.762-1.675,5.117-1.675,5.117c0.38-0.787,4.749-3.042,4.749-3.042C49.336,120.023,46.125,110.832,46.125,110.832"/>
		<g>
			<defs>
				<path id="SVGID_1_" d="M29.993,107.717c0,3.748,3.044,6.78,6.788,6.78c3.746,0,6.794-3.032,6.794-6.78
					c0-3.72-3.048-6.748-6.794-6.748C33.037,100.969,29.993,103.997,29.993,107.717"/>
			</defs>
			<clipPath id="SVGID_2_">
				<use xlink:href="#SVGID_1_"  overflow="visible"/>
			</clipPath>
			
				<radialGradient id="SVGID_3_" cx="-226.9614" cy="-444.9121" r="2.0253" gradientTransform="matrix(4.1358 0 0 -4.1162 976.8156 -1726.3257)" gradientUnits="userSpaceOnUse">
				<stop  offset="0" style="stop-color:#FFFFFF"/>
				<stop  offset="0.0056" style="stop-color:#FFFFFF"/>
				<stop  offset="0.169" style="stop-color:#FDFEFA"/>
				<stop  offset="0.3542" style="stop-color:#F7FBED"/>
				<stop  offset="0.4101" style="stop-color:#F5FAE7"/>
				<stop  offset="0.4834" style="stop-color:#E5F3C2"/>
				<stop  offset="0.5463" style="stop-color:#DAEEA8"/>
				<stop  offset="0.5843" style="stop-color:#D6EC9F"/>
				<stop  offset="1" style="stop-color:#99CF10"/>
			</radialGradient>
			<rect x="29.993" y="100.969" clip-path="url(#SVGID_2_)" fill="url(#SVGID_3_)" width="13.582" height="13.528"/>
		</g>
		<polygon fill="#3FAE2A" points="51.688,140.396 51.688,90.272 52.566,90.272 52.566,140.396 51.797,140.396 		"/>
		<path fill="#3FAE2A" d="M66.222,128.845c-2.471,0.034-3.81-0.182-4.015-2.324c-0.036-0.253-0.164-2.531-0.164-6.774v-14.944
			c-0.008-1.968,0.409-3.204,1.758-3.669v-0.012h-5.89v0.021c1.286,0.532,1.808,1.676,1.792,3.659v14.944
			c-0.022,6.219,0.03,9.029-2.095,9.749h17.591l1.444-5.982C74.222,127.834,70.852,128.856,66.222,128.845"/>
		<path fill="#3FAE2A" d="M66.222,128.845c-2.471,0.034-3.81-0.182-4.015-2.324c-0.036-0.253-0.164-2.531-0.164-6.774v-14.944
			c-0.008-1.968,0.409-3.204,1.758-3.669v-0.012h-5.89v0.021c1.286,0.532,1.808,1.676,1.792,3.659v14.944
			c-0.022,6.219,0.03,9.029-2.095,9.749h17.591l1.444-5.982C74.222,127.834,70.852,128.856,66.222,128.845"/>
		<path fill="#3FAE2A" d="M83.805,130.047c2.834-0.004,4.881-1.503,6.094-4.395l0.259-0.627l0.107,0.669
			c0.104,0.65,0.318,1.568,0.56,2.354c0.202,0.664,0.421,1.26,0.516,1.503h2.919c-1.727-0.845-1.879-3.633-1.897-9.165v-0.171V117.4
			c0-3.269-0.104-5.465-1.376-7.184c-1.157-1.561-3.123-2.485-5.773-2.485c-2.555,0-4.83,0.668-6.841,2.051l0.817,3.544
			c0.627-3.295,2.684-5.18,5.805-5.168c3.639-0.004,4.998,2.785,5.073,8.244l0.002,0.186h-0.19h-0.793
			c-7.907,0.02-11.479,2.433-11.491,6.852C77.612,127.475,79.924,130.035,83.805,130.047 M82.312,118.825
			c1.487-1.153,3.673-1.772,6.509-1.772c0.435,0,0.597,0,1.072,0.046l0.174,0.012v1.532v2.233c-0.004,5.229-1.865,8.022-5.396,8.03
			c-2.745-0.008-4.604-1.889-4.606-5.176C80.064,121.663,80.822,119.974,82.312,118.825"/>
		<path fill="#3FAE2A" d="M172.842,121.491l-0.018,0.18v-0.18h-0.449c-0.39,0.025-0.524,0.33-0.556,0.423
			c-1.125,4.01-3.133,6.215-6.246,6.219c-2.84-0.014-5.91-2.195-5.926-9.678c0-0.783,0.02-0.687,0.075-1.441h13.028
			c0.209-0.03,0.453-0.242,0.441-0.617c0-0.052-0.008-0.109-0.014-0.166c-0.241-1.994-1.483-8.543-7.619-8.844
			c-0.075-0.006-0.178-0.02-0.287-0.02c-0.188-0.004-0.372,0.006-0.554,0.018c-3.707,0.164-5.875,2.455-7.081,4.724
			c-0.366,0.668-0.68,1.394-0.921,2.169c-0.032,0.092-0.06,0.181-0.087,0.275c-0.451,1.59-0.552,3.214-0.556,4.278
			c0.054,6.449,3.841,11.123,9.1,11.123h0.004c3.944,0,6.869-2.988,8.04-7.901c0.006-0.052,0.012-0.081,0.012-0.104
			C173.244,121.632,172.967,121.491,172.842,121.491 M169.514,115.324h-9.553c0.534-3.234,2.547-6.595,4.945-6.561
			C167.706,108.75,169.306,111.727,169.514,115.324"/>
		<path fill="#3FAE2A" d="M204.565,129.053l-0.036,0.045l0.01-0.069c0,0-0.029,0-0.136-0.118c-0.324-0.338-1.086-1.646-1.151-5.908
			v-8.687c0.004-2.581-0.93-4.334-2.313-5.405c-1.38-1.076-3.187-1.483-4.937-1.483c-0.465,0-0.903,0.004-1.337,0.023
			c-1.742,0.12-2.791,0.507-3.119,0.648c-0.704,0.333-1.691,0.9-2.389,1.731c-0.152,0.227-0.204,0.429-0.204,0.589
			c0,0.099,0.018,0.178,0.051,0.249l1.039,1.776l0.04,0.023c0.043,0.026,0.099,0.052,0.18,0.052
			c0.141,0.004,0.279-0.104,0.352-0.264l0.008-0.008c0.56-1.183,1.909-3.291,4.72-3.287c3.823-0.016,4.271,3.931,4.271,3.931
			l0.008,0.006c0.102,0.635,0.152,1.323,0.152,2.057v1.149h-1.538c-3.165,0.006-10.338,0.6-10.368,6.895
			c0.008,4.892,3.345,6.893,6.563,6.9h0.023c2.512,0,4.271-1.311,5.497-4.086c0.012,0.1,0.018,0.194,0.031,0.291
			c0.336,2.838,1.375,3.424,1.821,3.522v0.027h2.33c0.204-0.016,0.511,0.011,0.57-0.352
			C204.712,129.191,204.622,129.082,204.565,129.053 M199.774,119.034c-0.055,1.68-0.272,4.104-0.973,5.978
			c-0.04,0.089-0.067,0.178-0.106,0.259c-0.542,1.227-1.219,1.855-1.729,2.184c-0.34,0.192-0.726,0.354-1.177,0.461
			c-0.245,0.05-0.477,0.071-0.686,0.071c-0.156,0-0.309-0.012-0.453-0.033l-0.125-0.017l0,0c-0.01,0-0.016-0.004-0.016-0.004
			c-0.2-0.043-0.376-0.104-0.55-0.189c-0.922-0.403-2.429-1.479-2.433-4.472v-0.092c0.039-3.872,3.158-5.085,3.889-5.316v0.004
			l0.158-0.045c1.229-0.368,2.606-0.443,3.475-0.443c0.318,0,0.573,0.012,0.726,0.02V119.034z"/>
		<path fill="#3FAE2A" d="M146.521,107.84c-0.089-0.037-0.228-0.087-0.453-0.103h-5.143c-0.332,0.02-0.534,0.083-0.672,0.189
			c-0.099,0.117-0.143,0.22-0.143,0.316c0,0.103,0.038,0.187,0.075,0.239c0.056,0.063,0.103,0.113,0.165,0.158
			c0.117,0.075,0.239,0.133,0.366,0.178c0.72,0.2,1.072,0.438,1.234,0.615c0.091,0.065,0.123,0.121,0.123,0.121
			c0.069,0.148,0.126,0.38,0.126,0.733c0,0.39-0.079,0.938-0.299,1.651c0,0-0.008,0.015-0.021,0.071
			c-0.065,0.22-0.139,0.428-0.19,0.57l-4.452,11.487l-4.44-11.359c-0.192-0.55-0.488-1.295-0.645-1.96
			c-0.073-0.307-0.105-0.56-0.105-0.768c0.014-0.751,0.342-0.947,0.676-1.042l0.137-0.037v-0.021
			c0.111-0.049,0.281-0.132,0.411-0.257c0.042-0.029,0.063-0.056,0.081-0.071l0.032-0.043c0.085-0.115,0.135-0.231,0.135-0.345
			c0-0.172-0.109-0.28-0.167-0.32c-0.117-0.06-0.219-0.089-0.354-0.104l-6.278-0.004c-0.233,0.016-0.383,0.065-0.417,0.083
			c-0.156,0.106-0.318,0.231-0.348,0.459v0.063c0.004,0.141,0.075,0.279,0.2,0.39l-0.008-0.008c0.138,0.125,0.324,0.196,0.39,0.224
			c0.392,0.097,0.947,0.351,1.493,1.151c0.771,1.335,1.491,3.266,2.294,5.407l5.396,14.008c0.2,0.377,0.16,0.658,0.544,0.729
			c0.231-0.038,0.247-0.162,0.346-0.283c0.075-0.124,0.15-0.274,0.202-0.409l6.005-15.314c0.613-1.458,1.236-2.799,1.845-3.843
			c0.623-0.972,1.205-1.312,1.563-1.433l0.01-0.004l0.115-0.041v-0.014c0.079-0.034,0.182-0.092,0.267-0.156
			c0.143-0.125,0.216-0.271,0.216-0.42C146.821,108.069,146.634,107.927,146.521,107.84"/>
		<path fill="#3FAE2A" d="M118.095,128.922l-0.004,0.008c-1.406-0.779-2.506-3.802-3.022-5.641c-0.132-0.48-0.253-0.957-0.37-1.43
			c-0.004-0.026-0.01-0.048-0.01-0.048c-0.045-0.178-0.083-0.345-0.125-0.511c-0.898-3.888-3.157-5.66-5.704-6.501
			c0.348-0.048,0.736-0.112,1.147-0.214c1.523-0.49,5.042-2.076,5.309-6.171c0.012-0.203,0.022-0.399,0.022-0.589
			c0.002-3.865-2.569-5.729-4.66-6.437c-0.942-0.233-2.012-0.361-3.266-0.361H96.04c-0.246,0-0.408,0.02-0.55,0.091
			c-0.144,0.062-0.221,0.237-0.213,0.361c0.043,0.455,0.463,0.474,0.742,0.644c1.054,0.488,1.151,2.697,1.133,4.021v18.511
			c-0.004,2.158-0.273,3.341-1.373,4.176c-0.253,0.197-0.469,0.145-0.566,0.494c-0.016,0.106,0.111,0.251,0.2,0.257
			c0.087,0.021,0.148,0.017,0.233,0.017h6.711c0.267-0.009,0.471,0,0.526-0.273c-0.06-0.301-0.224-0.278-0.51-0.502
			c-1.029-0.649-1.436-2.018-1.436-4.168v-9.181l0.101-0.004l-0.036-0.087l2.957,0.002l0.004-0.002
			c0.17,0.004,1.03,0.045,2.059,0.469c0.661,0.241,1.476,0.696,2.253,1.57c0.528,0.587,1.011,1.339,1.38,2.306
			c0.006,0.026,0.01,0.038,0.016,0.054c0.152,0.37,0.296,0.773,0.435,1.2c0.024,0.073,0.045,0.145,0.063,0.216
			c0.025,0.099,0.051,0.182,0.079,0.273c0.13,0.51,0.269,1.058,0.419,1.64c0.022,0.097,0.043,0.184,0.06,0.282l0.021,0.125
			l0.02,0.004c0.014,0.052,0.026,0.103,0.043,0.166l0.364,1.41c1.07,3.538,1.837,4.259,2.11,4.421l0.032,0.079h2.979v0.004h1.741
			c0.069-0.038,0.309,0.062,0.397-0.287C118.414,129.104,118.287,129.051,118.095,128.922 M111.208,107.952
			c0,2.152-0.932,4.311-2.72,5.252l-0.051,0.025c-0.597,0.307-1.297,0.49-2.101,0.49h-5.399v-11.222h5.615
			C109.715,102.506,111.182,104.738,111.208,107.952"/>
		<path fill="#3FAE2A" d="M126.111,128.789c-1.234-0.295-1.476-2.037-1.468-4.624v-13.271v-1.432
			c0.016-1.429-0.831-1.723-1.096-1.78l-0.02-0.021h-3.736c-0.111,0.004-0.196,0.021-0.263,0.035
			c-0.198,0.085-0.344,0.206-0.344,0.392c0.048,0.37,0.398,0.445,0.402,0.475c0.211,0.087,0.496,0.243,0.761,0.53
			c0.15,0.178,0.495,0.681,0.665,1.57l0.01,0.044l0.004,0.006c0.038,0.22,0.083,0.722,0.083,1.754v0.03v11.669
			c0.006,2.591-0.25,4.329-1.5,4.624c-0.215,0.02-0.467,0.233-0.441,0.548c-0.012,0.154,0.154,0.279,0.255,0.283
			c0.101,0.021,0.211,0.02,0.354,0.02c0.036,0,0.079-0.004,0.138-0.008l5.898,0.004c0.042,0,0.091,0.004,0.133,0.004h0.089
			c0.099,0,0.182-0.004,0.267-0.02c0.093-0.004,0.269-0.125,0.255-0.283C126.582,129.013,126.329,128.809,126.111,128.789
			 M126.072,128.963L126.072,128.963v-0.004V128.963z"/>
		<path fill="#3FAE2A" d="M154.879,128.789c-1.238-0.299-1.478-2.037-1.466-4.624v-13.271v-1.432c0.014-1.42-0.821-1.723-1.094-1.78
			l-0.018-0.021h-3.746c-0.113,0.004-0.188,0.021-0.255,0.037c-0.198,0.081-0.346,0.204-0.35,0.39
			c0.052,0.37,0.404,0.445,0.404,0.475c0.213,0.091,0.49,0.243,0.761,0.534c0.148,0.174,0.497,0.677,0.667,1.566l0.01,0.044
			l0.006,0.006c0.033,0.224,0.079,0.726,0.079,1.758v0.026v11.669c0.01,2.591-0.255,4.329-1.501,4.624
			c-0.217,0.02-0.471,0.233-0.443,0.548c-0.016,0.154,0.16,0.279,0.251,0.283c0.111,0.02,0.222,0.02,0.358,0.02
			c0.038,0,0.085-0.004,0.139-0.008h5.902c0.043,0.004,0.091,0.008,0.128,0.008h0.056c0.113,0,0.206-0.004,0.301-0.02
			c0.097-0.004,0.273-0.125,0.263-0.283C155.352,129.017,155.093,128.809,154.879,128.789"/>
		<path fill="#3FAE2A" d="M188.202,109.209l-0.014-0.042l-0.03-0.034c-0.104-0.174-1.07-1.687-2.977-1.692
			c-1.017,0-2.271,0.445-3.746,1.727c-0.724,0.704-1.262,1.487-1.657,2.184v-0.457h0.004v-1.432
			c0.018-1.391-0.787-1.709-1.072-1.774l-0.014-0.025h-3.768c-0.113,0.004-0.188,0.02-0.253,0.035
			c-0.204,0.081-0.35,0.204-0.354,0.39c0.055,0.37,0.397,0.445,0.401,0.475c0.214,0.087,0.497,0.245,0.764,0.53
			c0.15,0.18,0.494,0.683,0.667,1.57l0.01,0.05v0.004c0.04,0.224,0.087,0.726,0.087,1.756v11.695
			c0.01,2.589-0.257,4.323-1.503,4.622c-0.218,0.022-0.469,0.233-0.441,0.548c-0.012,0.154,0.158,0.279,0.253,0.283
			c0.107,0.021,0.217,0.02,0.358,0.02c0.034,0,0.077-0.004,0.134-0.008h5.898c0.043,0.004,0.095,0.008,0.132,0.008h0.04
			c0.13,0,0.228,0,0.314-0.02c0.099-0.004,0.277-0.125,0.265-0.283c0.021-0.322-0.237-0.525-0.455-0.548
			c-1.232-0.299-1.474-2.033-1.467-4.622v-7.296l0.008-0.004v-0.129c0-0.781,0.109-1.586,0.3-2.338
			c0.028-0.106,0.06-0.208,0.089-0.311c0.008-0.018,0.008-0.029,0.008-0.029c0.313-1.013,0.71-1.64,1.09-2.041l0.138-0.146
			c0.279-0.27,0.946-0.851,1.632-0.976l0.089-0.016l0.006-0.01c0.043-0.008,0.101-0.008,0.174-0.008
			c0.421,0.008,1.244,0.142,1.776,1.378l0.136,0.333l0.071-0.113c0.024,0.01,0.051,0.018,0.087,0.022
			c0.081,0,0.146-0.034,0.21-0.076l2.551-2.713c0.051-0.067,0.097-0.158,0.093-0.275
			C188.238,109.351,188.228,109.279,188.202,109.209"/>
	</g>
</g>
</svg>
