<?xml version="1.0" encoding="utf-8"?>
<!-- Generator: Adobe Illustrator 16.0.0, SVG Export Plug-In . SVG Version: 6.00 Build 0)  -->
<!DOCTYPE svg PUBLIC "-//W3C//DTD SVG 1.1//EN" "http://www.w3.org/Graphics/SVG/1.1/DTD/svg11.dtd">
<svg version="1.1" xmlns="http://www.w3.org/2000/svg" xmlns:xlink="http://www.w3.org/1999/xlink" x="0px" y="0px" width="230px"
	 height="230px" viewBox="0 0 230 230" enable-background="new 0 0 230 230" xml:space="preserve">
<g id="Capa_1">
</g>
<g id="Modo_de_aislamiento">
	<rect fill="#FFFFFF" width="230" height="230"/>
	<g>
		<path fill="#008053" d="M170.474,91.66c-5.795,12.989,8.745,17.37-5.635,49.109c-2.135,4.664,25.43-15.38,28.659-32.582
			C198.204,82.981,175.926,79.414,170.474,91.66"/>
		<path fill="#77BC1F" d="M166.395,114.333c-7.409,14.367-13.582,24.093-29.086,26.245c-7.643,1.071-20.285-2.233-24.205,5.669
			c-5.326,10.761,6.035,19.81,18.737,17.344c15.345-2.973,22.612-11.891,28.458-23.609
			C161.877,136.851,166.824,124.452,166.395,114.333"/>
		<path fill="#FFC627" d="M138.043,95.908c15.563,0.201,21.822,15.204,14.569,28.759c-1.3,2.418,21.959-21.783,4.45-46.844
			c-12.464-17.837-36.479-13.067-40.15-1.617C112.996,88.411,124.091,95.734,138.043,95.908"/>
		<path fill="#008053" d="M100.673,106.012c-0.36-0.584-1.113-0.992-1.941-1.076c-0.159-0.022-4.231-0.747-6.478-0.747
			c-3.024,0-6.023,0.982-8.711,2.883c-8.704,6.044-9.848,16.316-9.959,17.45c-0.23,2.784,0.412,5.121,1.886,6.724
			c1.28,1.396,3.133,2.179,5.2,2.179c3.819,0,7.245-3.63,9.479-6.625c-0.167,0.846-0.371,1.896-0.627,3.279
			c-0.122,0.72,0.082,1.438,0.546,1.952c0.501,0.585,1.232,0.889,2.026,0.863c1.396-0.056,2.918-1.069,3.066-2.613
			c0.151-1.845,0.757-4.758,1.845-8.878l1.325-4.915c1.046-3.84,1.885-6.704,2.55-8.72
			C101.141,106.951,100.922,106.363,100.673,106.012 M92.834,115.421c-1.304,4.805-2.48,7.567-4.024,9.573
			c-2.115,2.733-4.413,3.138-5.597,3.138c-1.055,0-1.879-0.305-2.446-0.913c-0.783-0.874-1.103-2.389-0.921-4.417
			c0.256-3.031,2.947-14.348,11.288-14.348c1.466,0,2.595,0.312,3.455,0.576C94.144,110.647,92.834,115.421,92.834,115.421"/>
		<path fill="#008053" d="M117.64,109.195c0.649,0,1.039,0.083,1.218,0.285c0.315,0.34,0.256,1.291,0.148,2.419
			c-0.097,1.371-0.665,3.669-1.467,6.741l-0.891,3.474c-0.983,3.684-1.641,5.889-2.193,7.428c-0.253,0.716-0.156,1.475,0.267,2.075
			c0.476,0.663,1.292,1.071,2.157,1.071c1.759,0,3.325-1.277,3.652-2.939c0.59-3.38,2.156-10.165,3.867-14.001
			c2.732-6.037,6.556-6.512,7.665-6.512c0.568,0,0.772,0.152,0.88,0.259c0.308,0.345,0.416,1.156,0.297,2.405
			c-0.086,1.006-0.571,2.981-0.977,4.562l-2.297,8.758c-0.26,0.93-1.088,4.035-0.954,5.295c0.107,0.924,0.653,2.711,2.026,2.882
			c0.145,0.015,0.375,0.015,0.664,0.015h0.179c1.195,0,2.558-0.714,3.136-1.614c0.36-0.602,0.412-1.277,0.108-1.882
			c-0.527-1.086,0.204-3.914,1.206-7.521l2.286-8.47c0.517-1.875,0.828-2.99,0.91-4.214c0.171-1.693-0.234-3.056-1.121-4.051
			c-1.358-1.469-3.423-1.617-4.254-1.617c-2.772,0-4.963,1.822-5.598,2.379c-1.21,1.161-2.639,3.126-3.638,4.61
			c-0.066-1.83-0.349-4.232-1.814-5.682c-0.865-0.872-2.016-1.307-3.419-1.307c-3.181,0-5.583,2.361-5.598,2.406
			c-0.806,0.733-1.688,1.932-2.49,3.08c0.082-0.249,0.159-0.498,0.223-0.684c0.245-0.593,0.308-1.525-0.156-2.307
			c-0.267-0.466-0.857-1.055-2.056-1.229c-0.594-0.098-1.355-0.179-1.919-0.138c-0.676,0.098-1.284,0.468-1.741,1.052
			c-0.516,0.667-0.728,1.558-0.594,2.375c0.252,1.509,0.141,2.085-0.42,4.133l-3.292,12.461c-0.542,2.045-0.928,3.361-1.313,4.454
			c-0.29,0.741-0.189,1.563,0.26,2.173c0.423,0.566,1.091,0.9,1.841,0.869h0.367c1.756,0,3.349-1.316,3.608-3.001
			c0.586-3.194,2.513-11.083,3.938-14.348C112.098,111.49,114.83,109.195,117.64,109.195"/>
		<path fill="#008053" d="M54.041,106.461c0.216-0.707,0.049-1.467-0.434-1.986c-0.401-0.422-0.947-0.583-1.492-0.434
			c-0.646,0.148-2.187,0.137-3.419,0.118h-0.835c0.501-1.752,0.883-2.94,1.392-4.309c0.23-0.691,0.097-1.358-0.353-1.891
			c-0.508-0.57-1.351-0.831-2.175-0.664c-1.9,0.462-3.389,2-3.701,3.847c-0.192,1.015-0.4,1.825-0.712,3.005
			c-0.476,0.011-1.648,0.069-4.466,0.005c-0.505-0.005-0.905,0.688-1.21,2.066c-0.141,0.607,0,1.178,0.363,1.615
			c0.453,0.53,1.162,0.794,1.923,0.76h2.149l-4.458,15.834c-0.786,2.876-1.229,4.918,0.022,6.85
			c0.884,1.355,2.558,1.993,5.119,1.993c0.448,0,1.707-0.163,2.179-0.353l0.163-0.052c1.295-0.512,2.242-0.865,2.721-2.298
			c0.219-0.624,0.089-1.266-0.312-1.702c-0.375-0.408-0.895-0.549-1.426-0.429c-0.36,0.102-0.775,0.156-1.221,0.156
			c-0.535,0-1.27-0.109-1.696-0.568c-0.316-0.351-0.445-0.872-0.371-1.57c0.126-1.518,0.842-4.075,1.447-6.113
			c0.011-0.015,2.02-7.136,2.02-7.136l1.317-4.627c0.126,0,0.293,0,0.46-0.027c1.076-0.042,3.1-0.139,3.905,0.04
			C52.308,108.907,53.521,108.064,54.041,106.461"/>
		<path fill="#008053" d="M73.439,106.123c-1.244-1.365-3.229-2.082-5.709-2.082c-1.6,0-7.183,0.405-12.019,5.791
			c-1.125,1.251-4.807,5.832-5.349,12.163c-0.301,4.196,0.349,6.991,2.056,8.877c1.574,1.745,4.006,2.645,7.446,2.756
			c2.387,0,4.131-0.681,4.967-1.085c1.563-0.772,2.453-1.648,2.932-2.945c0.223-0.611,0.086-1.249-0.334-1.639
			c-0.404-0.338-0.932-0.447-1.414-0.203c-0.268,0.095-0.557,0.241-0.883,0.379c-1.103,0.512-2.339,1.082-3.813,1.082
			c-1.896,0.036-3.267-0.518-4.064-1.574c-1.329-1.755-0.902-4.517-0.676-5.529c3.797-0.145,7.138-0.293,10.761-1.991
			c1.478-0.674,3.626-1.904,5.334-4.224c1.161-1.559,1.985-3.561,2.134-5.277C74.954,108.811,74.479,107.263,73.439,106.123
			 M66.216,115.327c-3.01,2.654-6.221,4.228-9.116,4.484c0.52-2.138,1.838-6.694,4.139-9.054c2.176-2.302,4.154-2.659,5.123-2.659
			c0.838,0,1.514,0.268,1.963,0.746c0.424,0.445,0.59,1.091,0.516,1.913C68.711,112.337,67.775,113.966,66.216,115.327"/>
	</g>
</g>
</svg>
