<?xml version="1.0" encoding="utf-8"?>
<!-- Generator: Adobe Illustrator 16.0.0, SVG Export Plug-In . SVG Version: 6.00 Build 0)  -->
<!DOCTYPE svg PUBLIC "-//W3C//DTD SVG 1.1//EN" "http://www.w3.org/Graphics/SVG/1.1/DTD/svg11.dtd">
<svg version="1.1" xmlns="http://www.w3.org/2000/svg" xmlns:xlink="http://www.w3.org/1999/xlink" x="0px" y="0px" width="230px"
	 height="230px" viewBox="0 0 230 230" enable-background="new 0 0 230 230" xml:space="preserve">
<g id="Capa_1">
</g>
<g id="Modo_de_aislamiento">
	<rect fill="#00539A" width="230" height="230"/>
	<g>
		<path fill="#FFFFFF" d="M55.386,109.706c1.312,0,3.1,0.48,4.147,1.853l0.228,0.294l3.266-2.449l-0.22-0.301
			c-1.917-2.45-4.776-3.862-7.828-3.862c-5.462,0-9.906,4.521-9.906,10.097c0,5.563,4.444,10.091,9.906,10.091
			c3.024,0,5.93-1.443,7.782-3.862l0.229-0.307l-3.264-2.469l-0.217,0.341c-0.826,1.354-2.744,1.831-4.123,1.831
			c-2.733,0-4.881-2.475-4.881-5.625C50.505,112.178,52.652,109.706,55.386,109.706"/>
		<path fill="#FFFFFF" d="M77.691,120.962c-2.719,0-4.914-2.519-4.914-5.625c0-3.101,2.194-5.634,4.914-5.634
			c2.735,0,4.949,2.533,4.949,5.634C82.641,118.443,80.426,120.962,77.691,120.962 M77.691,105.24
			c-5.702,0-10.343,4.521-10.343,10.097c0,5.563,4.641,10.088,10.343,10.088c5.702,0,10.345-4.525,10.345-10.088
			C88.036,109.762,83.394,105.24,77.691,105.24"/>
		<path fill="#FFFFFF" d="M122.191,120.958c-2.718,0-4.923-2.515-4.923-5.621c0-3.101,2.205-5.634,4.923-5.634
			c2.732,0,4.953,2.533,4.953,5.634C127.144,118.443,124.923,120.958,122.191,120.958 M122.191,105.24
			c-5.716,0-10.344,4.521-10.344,10.097c0,5.563,4.628,10.088,10.344,10.088c5.705,0,10.338-4.525,10.338-10.088
			C132.53,109.762,127.896,105.24,122.191,105.24"/>
		<path fill="#FFFFFF" d="M147.842,105.714l0.288-0.064c0.681-0.152,1.217-0.195,1.75-0.211c0.322,0,0.616,0,0.879,0.031
			c4.683,0.331,7.884,4.032,7.884,9.238v10.519h-5.18V114.82c0-3.343-2.079-4.805-4.116-4.805c-2.131,0-4.511,1.707-4.511,4.018
			v11.193h-5.195v-19.397l0.685,0.471c0.839,0.483,1.806,0.771,2.84,0.771c0.836,0,1.812-0.213,2.529-0.551
			C145.694,106.52,147.251,105.888,147.842,105.714"/>
		<path fill="#FFFFFF" d="M175.187,120.955c-2.468,0-4.477-2.515-4.477-5.621c0-3.101,2.009-5.628,4.477-5.628
			c2.487,0,4.513,2.527,4.513,5.628C179.7,118.44,177.674,120.955,175.187,120.955 M179.062,124.22
			c0.685-0.307,1.456-0.474,2.252-0.474c1.369,0,2.626,0.482,3.605,1.304l0.009-19.413l-0.678,0.468
			c-0.836,0.483-1.806,0.768-2.842,0.768c-0.829,0-1.813-0.207-2.526-0.545l-0.334-0.154l-1.252-0.512l-0.516-0.167
			c0,0-1.007-0.207-1.549-0.235l-0.472-0.019h-0.073h0.056h-0.081c-5.171,0-9.381,4.521-9.381,10.094
			c0.081,5.665,4.21,10.091,9.381,10.091c1.298,0,2.552-0.285,3.695-0.846L179.062,124.22"/>
		<path fill="#FFFFFF" d="M100.078,114.033c0-1.599,1.162-2.967,2.678-3.221c0.175-0.044,2.433-0.415,3.774,1.304v-6.538
			c0,0-0.809-0.14-1.66-0.14c-1.225,0-2.468,0.298-3.611,0.861l-0.492,0.241c-0.709,0.331-1.512,0.529-2.348,0.529
			c-1.053,0-2.013-0.287-2.862-0.786l-0.662-0.455v19.397h5.183V114.033"/>
	</g>
</g>
</svg>
