<?xml version="1.0" encoding="utf-8"?>
<!-- Generator: Adobe Illustrator 16.0.0, SVG Export Plug-In . SVG Version: 6.00 Build 0)  -->
<!DOCTYPE svg PUBLIC "-//W3C//DTD SVG 1.1//EN" "http://www.w3.org/Graphics/SVG/1.1/DTD/svg11.dtd">
<svg version="1.1" xmlns="http://www.w3.org/2000/svg" xmlns:xlink="http://www.w3.org/1999/xlink" x="0px" y="0px" width="230px"
	 height="230px" viewBox="0 0 230 230" enable-background="new 0 0 230 230" xml:space="preserve">
<g id="Capa_1">
</g>
<g id="Modo_de_aislamiento">
	<rect fill-rule="evenodd" clip-rule="evenodd" fill="#C6C6C6" width="230" height="230"/>
	<g opacity="0.8">
		<g>
			<polygon fill="#FFFFFF" points="215.743,133.013 199.614,133.013 199.614,116.879 195.333,116.879 195.333,133.013 
				179.195,133.013 179.195,137.292 195.333,137.292 195.333,153.426 199.614,153.426 199.614,137.292 215.743,137.292 			"/>
			<polygon fill="#FFFFFF" points="38.215,89.15 27.641,89.15 27.641,78.574 24.834,78.574 24.834,89.15 14.257,89.15 
				14.257,91.956 24.834,91.956 24.834,102.533 27.641,102.533 27.641,91.956 38.215,91.956 			"/>
			<g>
				<g>
					<g>
						<path fill="#FFFFFF" d="M85.151,133.329h0.857l1.166,3.057h0.017l1.106-3.057h0.801l-1.858,4.757
							c-0.264,0.679-0.521,1.142-1.339,1.142c-0.223,0-0.452-0.025-0.66-0.108l0.092-0.679c0.14,0.06,0.296,0.093,0.445,0.093
							c0.472,0,0.612-0.257,0.761-0.645l0.238-0.619L85.151,133.329z"/>
						<path fill="#FFFFFF" d="M91.687,133.229c1.165,0,2.082,0.917,2.082,2.056c0,1.141-0.916,2.058-2.082,2.058
							c-1.164,0-2.082-0.916-2.082-2.058C89.604,134.147,90.521,133.229,91.687,133.229z M91.687,136.648
							c0.793,0,1.288-0.569,1.288-1.363c0-0.792-0.495-1.362-1.288-1.362c-0.794,0-1.288,0.57-1.288,1.362
							C90.398,136.079,90.893,136.648,91.687,136.648z"/>
						<path fill="#FFFFFF" d="M98.214,137.245H97.47v-0.604h-0.017c-0.189,0.414-0.685,0.702-1.288,0.702
							c-0.761,0-1.423-0.453-1.423-1.494v-2.52h0.744v2.312c0,0.735,0.422,1.009,0.894,1.009c0.619,0,1.089-0.396,1.089-1.305
							v-2.016h0.744L98.214,137.245L98.214,137.245z"/>
						<path fill="#FFFFFF" d="M99.38,133.329h0.743v0.604h0.018c0.191-0.414,0.686-0.703,1.174-0.703
							c0.115,0,0.23,0.018,0.329,0.049l-0.031,0.801c-0.125-0.032-0.249-0.058-0.364-0.058c-0.728,0-1.124,0.397-1.124,1.255v1.968
							h-0.743L99.38,133.329L99.38,133.329z"/>
						<path fill="#FFFFFF" d="M104.818,130.998h0.744v2.893h0.017c0.265-0.406,0.801-0.661,1.362-0.661
							c1.207,0,1.991,0.884,1.991,2.056c0,1.157-0.776,2.058-1.991,2.058c-0.527,0-1.072-0.239-1.362-0.661h-0.017v0.563h-0.744
							V130.998z M108.139,135.285c0-0.792-0.496-1.362-1.289-1.362s-1.288,0.57-1.288,1.362c0,0.794,0.495,1.363,1.288,1.363
							S108.139,136.079,108.139,135.285z"/>
						<path fill="#FFFFFF" d="M109.908,133.329h0.743v0.604h0.018c0.19-0.414,0.687-0.703,1.174-0.703
							c0.115,0,0.23,0.018,0.329,0.049l-0.031,0.801c-0.125-0.032-0.249-0.058-0.364-0.058c-0.727,0-1.124,0.397-1.124,1.255v1.968
							h-0.743L109.908,133.329L109.908,133.329z"/>
						<path fill="#FFFFFF" d="M113.025,133.807c0.412-0.39,1.007-0.577,1.553-0.577c1.155,0,1.635,0.627,1.635,1.305v2
							c0,0.272,0.008,0.503,0.032,0.711h-0.661c-0.015-0.198-0.024-0.398-0.024-0.596h-0.017c-0.329,0.504-0.775,0.694-1.371,0.694
							c-0.726,0-1.354-0.412-1.354-1.173c0-1.009,0.968-1.355,2.156-1.355h0.545v-0.165c0-0.403-0.297-0.824-0.933-0.824
							c-0.569,0-0.843,0.238-1.114,0.445L113.025,133.807z M115.122,135.36c-0.702,0-1.562,0.126-1.562,0.752
							c0,0.445,0.332,0.636,0.843,0.636c0.826,0,1.114-0.611,1.114-1.14v-0.248H115.122z"/>
						<path fill="#FFFFFF" d="M117.339,133.329h0.743v0.604h0.018c0.188-0.414,0.685-0.703,1.287-0.703
							c0.76,0,1.422,0.453,1.422,1.495v2.52h-0.744v-2.313c0-0.735-0.421-1.008-0.893-1.008c-0.619,0-1.089,0.396-1.089,1.306v2.016
							h-0.743L117.339,133.329L117.339,133.329z"/>
						<path fill="#FFFFFF" d="M125.897,137.245h-0.743v-0.563h-0.018c-0.289,0.422-0.835,0.661-1.363,0.661
							c-1.215,0-1.991-0.9-1.991-2.058c0-1.172,0.786-2.056,1.991-2.056c0.563,0,1.1,0.255,1.363,0.661h0.018v-2.893h0.743V137.245z
							 M125.154,135.285c0-0.792-0.494-1.362-1.289-1.362c-0.792,0-1.288,0.57-1.288,1.362c0,0.794,0.496,1.363,1.288,1.363
							C124.659,136.648,125.154,136.079,125.154,135.285z"/>
						<path fill="#FFFFFF" d="M127.576,138.335h-0.68l0.571-2.033h0.802L127.576,138.335z"/>
						<path fill="#FFFFFF" d="M133.632,133.229c1.165,0,2.083,0.917,2.083,2.056c0,1.141-0.918,2.058-2.083,2.058
							s-2.082-0.916-2.082-2.058C131.55,134.147,132.468,133.229,133.632,133.229z M133.632,136.648c0.795,0,1.29-0.569,1.29-1.363
							c0-0.792-0.495-1.362-1.29-1.362c-0.791,0-1.287,0.57-1.287,1.362C132.345,136.079,132.841,136.648,133.632,136.648z"/>
						<path fill="#FFFFFF" d="M140.161,137.245h-0.744v-0.604H139.4c-0.19,0.414-0.684,0.702-1.287,0.702
							c-0.76,0-1.422-0.453-1.422-1.494v-2.52h0.744v2.312c0,0.735,0.421,1.009,0.891,1.009c0.619,0,1.09-0.396,1.09-1.305v-2.016
							h0.744L140.161,137.245L140.161,137.245z"/>
						<path fill="#FFFFFF" d="M141.327,133.329h0.744v0.604h0.017c0.189-0.414,0.685-0.703,1.173-0.703
							c0.116,0,0.231,0.018,0.332,0.049l-0.034,0.801c-0.124-0.032-0.247-0.058-0.363-0.058c-0.726,0-1.123,0.397-1.123,1.255v1.968
							h-0.744L141.327,133.329L141.327,133.329z"/>
						<path fill="#FFFFFF" d="M146.765,133.329h0.745v0.563h0.018c0.287-0.421,0.832-0.661,1.361-0.661c1.214,0,1.99,0.9,1.99,2.056
							c0,1.172-0.783,2.058-1.99,2.058c-0.562,0-1.098-0.256-1.361-0.661h-0.018v2.892h-0.745V133.329z M147.51,135.285
							c0,0.794,0.495,1.363,1.287,1.363c0.795,0,1.291-0.569,1.291-1.363c0-0.792-0.496-1.362-1.291-1.362
							C148.005,133.924,147.51,134.494,147.51,135.285z"/>
						<path fill="#FFFFFF" d="M151.873,133.807c0.412-0.39,1.007-0.577,1.552-0.577c1.157,0,1.637,0.627,1.637,1.305v2
							c0,0.272,0.009,0.503,0.031,0.711h-0.66c-0.017-0.198-0.022-0.398-0.022-0.596h-0.019c-0.328,0.504-0.776,0.694-1.371,0.694
							c-0.726,0-1.355-0.412-1.355-1.173c0-1.009,0.967-1.355,2.158-1.355h0.545v-0.165c0-0.403-0.298-0.824-0.935-0.824
							c-0.569,0-0.842,0.238-1.113,0.445L151.873,133.807z M153.97,135.36c-0.701,0-1.562,0.126-1.562,0.752
							c0,0.445,0.332,0.636,0.843,0.636c0.827,0,1.116-0.611,1.116-1.14v-0.248H153.97z"/>
						<path fill="#FFFFFF" d="M158.269,134.311c-0.174-0.214-0.431-0.388-0.802-0.388c-0.348,0-0.652,0.157-0.652,0.438
							c0,0.469,0.67,0.535,1,0.61c0.645,0.157,1.141,0.406,1.141,1.141c0,0.884-0.812,1.23-1.586,1.23
							c-0.645,0-1.124-0.165-1.512-0.694l0.562-0.463c0.24,0.24,0.521,0.463,0.951,0.463c0.379,0,0.792-0.156,0.792-0.495
							c0-0.444-0.619-0.528-0.941-0.603c-0.636-0.158-1.197-0.365-1.197-1.116c0-0.816,0.753-1.206,1.487-1.206
							c0.52,0,1.057,0.181,1.339,0.644L158.269,134.311z"/>
						<path fill="#FFFFFF" d="M161.979,134.311c-0.175-0.214-0.431-0.388-0.802-0.388c-0.348,0-0.651,0.157-0.651,0.438
							c0,0.469,0.668,0.535,0.999,0.61c0.645,0.157,1.14,0.406,1.14,1.141c0,0.884-0.81,1.23-1.586,1.23
							c-0.645,0-1.123-0.165-1.511-0.694l0.562-0.463c0.24,0.24,0.521,0.463,0.949,0.463c0.382,0,0.794-0.156,0.794-0.495
							c0-0.444-0.619-0.528-0.941-0.603c-0.636-0.158-1.197-0.365-1.197-1.116c0-0.816,0.753-1.206,1.485-1.206
							c0.521,0,1.059,0.181,1.34,0.644L161.979,134.311z"/>
						<path fill="#FFFFFF" d="M164.038,131.38c0.296,0,0.544,0.248,0.544,0.545c0,0.298-0.248,0.545-0.544,0.545
							c-0.299,0-0.546-0.247-0.546-0.545S163.738,131.38,164.038,131.38z M163.665,133.329h0.743v3.916h-0.743V133.329z"/>
						<path fill="#FFFFFF" d="M167.522,133.229c1.166,0,2.083,0.917,2.083,2.056c0,1.141-0.916,2.058-2.083,2.058
							c-1.164,0-2.081-0.916-2.081-2.058C165.441,134.147,166.358,133.229,167.522,133.229z M167.522,136.648
							c0.794,0,1.289-0.569,1.289-1.363c0-0.792-0.495-1.362-1.289-1.362c-0.793,0-1.287,0.57-1.287,1.362
							C166.235,136.079,166.729,136.648,167.522,136.648z"/>
						<path fill="#FFFFFF" d="M170.582,133.329h0.742v0.604h0.018c0.191-0.414,0.686-0.703,1.289-0.703
							c0.76,0,1.421,0.453,1.421,1.495v2.52h-0.743v-2.313c0-0.735-0.421-1.008-0.892-1.008c-0.619,0-1.092,0.396-1.092,1.306v2.016
							h-0.742L170.582,133.329L170.582,133.329z"/>
						<path fill="#FFFFFF" d="M175.806,136.203c0.295,0,0.544,0.248,0.544,0.545c0,0.299-0.249,0.545-0.544,0.545
							c-0.299,0-0.546-0.246-0.546-0.545C175.26,136.451,175.507,136.203,175.806,136.203z M176.186,135.559h-0.794v-4.162h0.794
							V135.559z"/>
					</g>
				</g>
				<g>
					<g>
						<g>
							<path fill="#FFFFFF" d="M163.269,124.957h-4.145v-10.762c0-3.939-3.204-7.145-7.146-7.145c-3.938,0-7.146,3.205-7.146,7.145
								v10.762h-4.14v-10.762c0-6.226,5.06-11.289,11.285-11.289c6.224,0,11.29,5.064,11.29,11.289v10.762H163.269z"/>
						</g>
						<g>
							<g>
								<path fill="#FFFFFF" d="M105.834,124.957h-4.145v-11.234c0-6.225,5.064-11.287,11.286-11.287h2.073v4.143h-2.073
									c-3.939,0-7.143,3.204-7.143,7.145L105.834,124.957L105.834,124.957z"/>
							</g>
						</g>
						<path fill="#FFFFFF" d="M183.893,92.867v12.125c-1.944-1.597-4.434-2.556-7.142-2.556c-6.225,0-11.288,5.063-11.288,11.287
							c0,6.226,5.063,11.29,11.288,11.29s11.285-5.064,11.285-11.29V92.867H183.893z M176.751,120.869
							c-3.938,0-7.143-3.206-7.143-7.146c0-3.939,3.204-7.145,7.143-7.145c3.939,0,7.142,3.204,7.142,7.145
							S180.69,120.869,176.751,120.869z"/>
						<path fill="#FFFFFF" d="M88.846,102.437c-2.707,0-5.195,0.959-7.146,2.556V92.867h-4.144v20.856
							c0,6.226,5.064,11.29,11.288,11.29s11.287-5.064,11.287-11.29C100.135,107.498,95.071,102.437,88.846,102.437z
							 M88.846,120.869c-3.94,0-7.146-3.206-7.146-7.146c0-3.939,3.205-7.145,7.146-7.145c3.941,0,7.146,3.204,7.146,7.145
							S92.787,120.869,88.846,120.869z"/>
						<g>
							<path fill="#FFFFFF" d="M138.496,125.013h-11.438c-6.225,0-11.292-5.064-11.292-11.29c0-6.225,5.067-11.287,11.292-11.287
								c6.206,0,11.264,5.039,11.286,11.244l0.151,3.783V125.013L138.496,125.013z M127.059,106.579
								c-3.94,0-7.146,3.204-7.146,7.145s3.206,7.146,7.146,7.146h7.295v-3.361l-0.15-3.783
								C134.202,109.783,130.998,106.579,127.059,106.579L127.059,106.579z"/>
						</g>
						<g>
							<path fill="#FFFFFF" d="M65.158,125.06c-2.891,0-5.781-1.101-7.982-3.301c-4.401-4.402-4.401-11.563,0-15.965
								c4.401-4.401,11.564-4.402,15.966-0.001l1.463,1.467l-2.93,2.929l-1.466-1.465c-2.785-2.784-7.315-2.784-10.104,0.002
								c-2.786,2.784-2.786,7.316,0,10.103c2.787,2.788,7.318,2.786,10.104,0l1.466-1.466l2.93,2.931l-1.463,1.466
								C70.94,123.96,68.051,125.06,65.158,125.06L65.158,125.06z"/>
						</g>
						<g>
							<path fill="#FFFFFF" d="M42.938,125.06c-2.89,0-5.781-1.101-7.981-3.301c-4.402-4.402-4.402-11.563,0-15.965
								c4.404-4.401,11.563-4.402,15.964-0.001l1.465,1.467l-2.93,2.929l-1.466-1.465c-2.785-2.784-7.317-2.784-10.104,0.002
								c-2.784,2.784-2.784,7.316,0,10.103c2.787,2.788,7.319,2.786,10.104,0l1.466-1.466l2.93,2.931l-1.465,1.466
								C48.719,123.96,45.831,125.06,42.938,125.06L42.938,125.06z"/>
						</g>
					</g>
					<g>
						<path fill="#FFFFFF" d="M188.66,121.126c1.077,0,1.982,0.846,1.982,1.955c0,1.134-0.905,1.979-1.982,1.979
							c-1.079,0-1.984-0.846-1.984-1.955C186.676,121.972,187.581,121.126,188.66,121.126z M188.66,124.776
							c0.924,0,1.665-0.731,1.665-1.695c0-0.944-0.741-1.669-1.665-1.669c-0.927,0-1.666,0.725-1.666,1.693
							C186.994,124.045,187.733,124.776,188.66,124.776z M187.924,121.965h0.837c0.543,0,0.804,0.204,0.804,0.657
							c0,0.409-0.267,0.583-0.604,0.619l0.654,1.005h-0.344l-0.624-0.979h-0.406v0.979h-0.318L187.924,121.965L187.924,121.965z
							 M188.242,122.982h0.392c0.316,0,0.613-0.017,0.613-0.374c0-0.319-0.271-0.355-0.516-0.355h-0.489V122.982L188.242,122.982z"
							/>
					</g>
				</g>
			</g>
		</g>
	</g>
</g>
</svg>
