<?xml version="1.0" encoding="utf-8"?>
<!-- Generator: Adobe Illustrator 16.0.0, SVG Export Plug-In . SVG Version: 6.00 Build 0)  -->
<!DOCTYPE svg PUBLIC "-//W3C//DTD SVG 1.1//EN" "http://www.w3.org/Graphics/SVG/1.1/DTD/svg11.dtd">
<svg version="1.1" xmlns="http://www.w3.org/2000/svg" xmlns:xlink="http://www.w3.org/1999/xlink" x="0px" y="0px" width="230px"
	 height="230px" viewBox="0 0 230 230" enable-background="new 0 0 230 230" xml:space="preserve">
<g id="Capa_1">
</g>
<g id="Modo_de_aislamiento">
	<rect fill-rule="evenodd" clip-rule="evenodd" fill="#FFFFFF" width="230" height="230"/>
	<g>
		<path fill-rule="evenodd" clip-rule="evenodd" fill="#EC1C24" d="M58.468,98.908v10.775h12.341V98.908h5.632v27.329h-5.675
			l0.008-11.817H58.581v11.817h-5.609l0.017-27.329C54.776,98.945,58.468,98.908,58.468,98.908 M132.782,98.982
			c0,0-0.019,16.744,0,16.705l7.343-8.32h6.532l-7.347,8.399c2.789,3.423,5.591,7.041,8.539,10.439h-6.525
			c-2.836-3.398-8.542-10.628-8.542-10.369l0.03,10.369h-5.547V98.982H132.782z M176.664,126.237c-0.092,0.021-5.543,0.069-5.55,0
			V98.945h5.55V126.237z M121.446,109.424c1.079,1.527,1.265,3.431,1.265,5.444v11.338h-5.551c0,0-0.064-8.014-0.012-12.522
			c0.017-1.198-1.035-2.358-1.97-2.769c-1.336-0.417-3.206-0.417-4.355,0.369c-1.947,1.306-2.084,3.608-2.053,5.707v9.215
			c-0.057,0-3.729-0.039-5.561,0c0.053,0.053,0-18.911,0-18.911h5.483l0.149,3.099c1.869-3.133,5.443-3.879,8.837-3.32
			C119.17,107.332,120.438,108.193,121.446,109.424 M166.377,111.212c1.006,2.09,1.456,4.397,1.194,6.898h-14.428
			c0,0-0.246,1.345,0.184,2.646c0.303,1.117,1.155,2.24,2.239,2.801c1.382,0.519,3.391,0.563,4.585-0.375
			c1.043-0.782,1.27-2.011,1.495-3.021h5.811c-0.372,2.387-1.749,4.884-4.1,5.967c-3.435,1.642-8.537,1.642-11.779-0.338
			c-3.171-2.123-4.294-5.554-4.215-9.212c0-3.763,1.864-7.865,5.627-9.317C157.459,105.7,163.803,106.437,166.377,111.212
			 M159.962,110.951c1.01,1.118,1.495,2.459,1.529,4.025h-8.238c0.074-2.017,0.969-4.212,2.943-4.844
			C157.503,109.718,158.991,110.017,159.962,110.951 M98.816,111.029c1.001,2.092,1.454,4.401,1.191,6.904H85.575
			c0,0-0.236,1.338,0.184,2.645c0.299,1.113,1.162,2.235,2.245,2.795c1.378,0.525,3.387,0.558,4.585-0.373
			c1.042-0.784,1.268-2.018,1.491-3.014h5.815c-0.374,2.378-1.754,4.873-4.101,5.958c-3.431,1.645-8.539,1.645-11.786-0.336
			c-3.164-2.126-4.285-5.551-4.211-9.209c0-3.761,1.864-7.861,5.632-9.321C89.903,105.521,96.238,106.259,98.816,111.029
			 M92.403,110.771c1.001,1.114,1.488,2.465,1.527,4.031H85.69c0.069-2.021,0.964-4.216,2.946-4.852
			C89.94,109.541,91.435,109.834,92.403,110.771 M114.994,75.073c-42.894,0-75.363,18.678-75.363,39.59
			c0,20.918,32.469,39.596,75.363,39.596c42.904,0,75.368-18.678,75.368-39.596C190.362,93.751,157.898,75.073,114.994,75.073
			 M114.994,70.973c42.617,0,79.471,18.616,79.471,43.69c0,25.08-36.854,43.696-79.471,43.696
			c-42.605,0-79.459-18.616-79.459-43.696C35.535,89.589,72.389,70.973,114.994,70.973"/>
		<path fill-rule="evenodd" clip-rule="evenodd" fill="#EC1C24" d="M114.997,70.973c42.615,0,79.466,18.616,79.466,43.69
			c0,25.08-36.852,43.696-79.466,43.696c-42.61,0-79.461-18.616-79.461-43.696C35.535,89.589,72.387,70.973,114.997,70.973
			 M36.031,114.663c0,24.58,36.321,43.201,78.966,43.201c42.649,0,78.97-18.621,78.97-43.201c0-24.578-36.321-43.199-78.97-43.199
			C72.352,71.464,36.031,90.085,36.031,114.663 M114.997,75.073c-42.899,0-75.363,18.674-75.363,39.59
			c0,20.918,32.464,39.596,75.363,39.596c42.903,0,75.366-18.678,75.366-39.596C190.362,93.747,157.9,75.073,114.997,75.073
			 M190.855,114.663c0,21.418-32.989,40.094-75.858,40.094c-42.863,0-75.854-18.676-75.854-40.094
			c0-21.416,32.992-40.085,75.854-40.085C157.866,74.578,190.855,93.247,190.855,114.663 M58.468,98.908v10.775h12.343V98.908h5.63
			v27.329h-5.678l0.011-11.817H58.578v11.817h-5.607l0.019-27.329C54.776,98.945,58.468,98.908,58.468,98.908 M53.481,99.409
			l-0.014,26.337h4.615V113.93h13.184l-0.012,11.816h4.691V99.399h-4.643v10.777H57.977V99.401
			C57.021,99.414,54.912,99.427,53.481,99.409 M176.666,126.237l-2.803,0.035l-1.888-0.004l-0.623-0.01l-0.236-27.313h5.55V126.237z
			 M176.177,125.759V99.437h-4.569v26.335l0.37,0.006l1.886,0.004l1.892-0.019L176.177,125.759z M121.448,109.419
			c1.079,1.532,1.266,3.436,1.266,5.449v11.338h-5.554c0,0-0.067-8.014-0.009-12.522c0.014-1.198-1.038-2.358-1.97-2.769
			c-1.341-0.417-3.21-0.417-4.36,0.369c-1.943,1.306-2.083,3.608-2.053,5.707v9.215c-0.053,0-3.729-0.039-5.556,0l0.016-0.802
			l0.009-2.133l-0.004-6.504l-0.021-9.473h5.482l0.145,3.099c1.869-3.133,5.446-3.879,8.837-3.32
			C119.17,107.332,120.441,108.193,121.448,109.419 M115.325,110.441c1.106,0.481,2.33,1.789,2.316,3.252
			c-0.048,3.841-0.005,10.215,0.004,12.016h4.576v-10.841c0-2.009-0.181-3.754-1.169-5.15c-0.95-1.161-2.105-1.922-3.455-2.158
			c-3.295-0.542-6.615,0.197-8.335,3.083l-0.833,1.412l-0.207-4.263h-4.516l0.016,8.976l0.004,6.504l-0.009,2.138l-0.004,0.599
			c1.458-0.322,3.605-0.314,4.562-0.303v-8.708c-0.034-2.086,0.081-4.647,2.266-6.116
			C111.87,109.978,113.913,110.007,115.325,110.441 M166.377,111.212c1.008,2.09,1.456,4.397,1.197,6.898h-14.433
			c0,0-0.063,0.333-0.069,0.834c-0.004,0.497,0.035,1.155,0.255,1.812c0.301,1.117,1.153,2.24,2.237,2.801
			c1.382,0.519,3.393,0.558,4.587-0.375c0.519-0.393,0.838-0.896,1.054-1.428c0.112-0.267,0.186-0.539,0.252-0.806l0.187-0.787
			h5.816c-0.373,2.387-1.752,4.884-4.101,5.967c-3.435,1.642-8.539,1.642-11.783-0.338c-3.171-2.123-4.289-5.554-4.216-9.212
			c0-3.763,1.867-7.865,5.633-9.317C157.462,105.7,163.801,106.437,166.377,111.212 M155.391,124.019
			c-1.263-0.654-2.202-1.869-2.534-3.123c-0.237-0.717-0.285-1.426-0.276-1.957c0.007-0.548,0.149-1.321,0.149-1.321h14.387
			c0.162-2.231-0.271-4.295-1.175-6.185c-2.408-4.46-8.413-5.228-12.779-3.71c-3.511,1.355-5.306,5.223-5.306,8.86
			c-0.074,3.557,1.001,6.794,3.983,8.795c3.083,1.878,8.008,1.878,11.308,0.302c1.977-0.906,3.244-2.935,3.715-5.026h-4.824
			l-0.102,0.416c-0.071,0.294-0.163,0.588-0.273,0.873c-0.241,0.588-0.597,1.171-1.214,1.627
			C159.067,124.654,156.855,124.57,155.391,124.019 M159.962,110.951c-0.974-0.935-2.457-1.233-3.763-0.818
			c-1.979,0.632-2.873,2.827-2.946,4.844h8.238C161.457,113.41,160.972,112.064,159.962,110.951 M161.988,114.969l0.013,0.503
			h-9.262l0.021-0.511c0.079-2.092,1.013-4.567,3.286-5.301c1.47-0.461,3.164-0.119,4.273,0.949
			C161.418,111.823,161.946,113.298,161.988,114.969 M98.818,111.029c0.997,2.092,1.452,4.401,1.189,6.904H85.575
			c0,0-0.064,0.332-0.064,0.831c-0.005,0.498,0.039,1.152,0.25,1.813c0.299,1.113,1.16,2.235,2.241,2.795
			c1.38,0.525,3.387,0.558,4.587-0.373c0.519-0.394,0.838-0.896,1.054-1.43c0.101-0.263,0.188-0.534,0.258-0.804l0.179-0.78h5.817
			c-0.376,2.378-1.754,4.873-4.101,5.958c-3.43,1.645-8.541,1.645-11.788-0.336c-3.166-2.126-4.285-5.551-4.209-9.209
			c0-3.761,1.862-7.861,5.628-9.321C89.905,105.521,96.24,106.259,98.818,111.029 M87.828,123.83
			c-1.26-0.644-2.202-1.865-2.533-3.114c-0.246-0.721-0.285-1.428-0.275-1.958c0.004-0.549,0.145-1.32,0.145-1.32h14.392
			c0.159-2.236-0.271-4.298-1.185-6.182c-2.4-4.468-8.406-5.232-12.773-3.715c-3.513,1.353-5.309,5.222-5.309,8.863
			c-0.069,3.553,1.005,6.79,3.988,8.789c3.084,1.878,8.007,1.883,11.309,0.304c1.974-0.905,3.242-2.935,3.712-5.021h-4.824
			l-0.099,0.409c-0.074,0.29-0.159,0.584-0.28,0.874c-0.234,0.586-0.597,1.174-1.208,1.631
			C91.503,124.473,89.292,124.39,87.828,123.83 M92.401,110.771c-0.969-0.937-2.464-1.229-3.764-0.82
			c-1.981,0.636-2.877,2.831-2.948,4.852h8.243C93.892,113.235,93.407,111.885,92.401,110.771 M94.424,114.788l0.009,0.5h-9.255
			l0.021-0.512c0.076-2.085,1.01-4.567,3.285-5.298c1.46-0.459,3.16-0.12,4.273,0.946C93.85,111.645,94.382,113.114,94.424,114.788
			 M133.064,115.442l0.337,0.296l0.694,0.813l2.273,2.783c1.722,2.131,3.768,4.679,5.18,6.375h5.224
			c-2.694-3.156-5.272-6.48-7.851-9.631l6.645-8.215h-5.218l-6.117,6.929C134.23,114.792,133.608,115.172,133.064,115.442
			 M133,115.477l7.126-8.109h6.528l-7.348,8.399c2.795,3.423,5.594,7.041,8.54,10.439h-6.523c-1.417-1.702-3.552-4.355-5.334-6.558
			l-2.275-2.78l-0.684-0.799C132.797,115.833,132.89,115.568,133,115.477 M132.291,115.837h0.491l0.032,10.369h-5.552V98.982h5.52
			l-0.007,8.371l-0.004,5.737l0.004,1.89l0.007,0.52c-0.282,0.197-0.491,0.26-0.496,0.148l-0.004-0.668v-1.885v-5.742l0.004-7.878
			h-4.533v26.233h4.565L132.291,115.837"/>
	</g>
</g>
</svg>
