<?xml version="1.0" encoding="utf-8"?>
<!-- Generator: Adobe Illustrator 16.0.0, SVG Export Plug-In . SVG Version: 6.00 Build 0)  -->
<!DOCTYPE svg PUBLIC "-//W3C//DTD SVG 1.1//EN" "http://www.w3.org/Graphics/SVG/1.1/DTD/svg11.dtd">
<svg version="1.1" xmlns="http://www.w3.org/2000/svg" xmlns:xlink="http://www.w3.org/1999/xlink" x="0px" y="0px" width="230px"
	 height="230px" viewBox="0 0 230 230" enable-background="new 0 0 230 230" xml:space="preserve">
<g id="Capa_1">
</g>
<g id="Modo_de_aislamiento">
	<rect fill="#0033A0" width="230" height="230"/>
	<g>
		<polygon fill="#0033A0" points="35.842,140.425 35.842,89.584 194.137,89.574 194.158,140.425 		"/>
		<polygon fill="none" stroke="#0033A0" stroke-width="3.9759" stroke-miterlimit="3.864" points="35.842,140.425 35.842,89.584 
			194.137,89.574 194.158,140.425 		"/>
		<rect x="37.232" y="90.886" fill="#FFFFFF" width="53.664" height="48.898"/>
		<path fill="#FFFFFF" d="M43.138,94.971c3.93,0.231,7.553,1.597,11.045,3.536c6.154-1.965,11.243-1.463,15.854,0.119
			c3.26-2.922,6.723-4.385,10.375-4.367l-1.463,2.056l2.163,1.737l-0.563,1.733c2.192,0.185,3.417,0.776,3.645,1.763l-1.344,1.004
			c2.698,1.459,3.745,2.688,3.103,3.74c-0.867-0.706-1.716-0.634-2.573,0.229c1.085,1.459,1.755,2.922,1.482,4.406l-2.286-0.025
			c0.961,1.575,1.293,2.969,1.069,4.153l-2.092-0.09l-0.184,2.445l-3.287-1.69c-1.506,3.726-4.128,7.834-7.408,10.983
			c-4.109-2.694-10.767-3.904-15.671-2.535c-1.781-1.028-3.625-3.604-5.425-7.374l-3.168,1.939l0.064-2.259l-2.393,0.319
			l-0.121-1.851l-2.271-0.455l1.907-2.534l-2.211-0.915l2.575-3.06l-2.438-0.527l2.846-3.009c-0.563-0.687-1.448-0.89-2.62-0.614
			c0.276-0.866,0.821-1.806,1.663-2.586l-1.889-0.887c1.098-1.168,2.282-1.825,3.563-2.01L43.138,94.971z"/>
		<path fill="none" stroke="#0033A0" stroke-width="1.5959" stroke-miterlimit="3.864" d="M43.138,94.971
			c3.93,0.231,7.553,1.597,11.045,3.536c6.154-1.965,11.243-1.463,15.854,0.119c3.26-2.922,6.723-4.385,10.375-4.367l-1.463,2.056
			l2.163,1.737l-0.563,1.733c2.192,0.185,3.417,0.776,3.645,1.763l-1.344,1.004c2.698,1.459,3.745,2.688,3.103,3.74
			c-0.867-0.706-1.716-0.634-2.573,0.229c1.085,1.459,1.755,2.922,1.482,4.406l-2.286-0.025c0.961,1.575,1.293,2.969,1.069,4.153
			l-2.092-0.09l-0.184,2.445l-3.287-1.69c-1.506,3.726-4.128,7.834-7.408,10.983c-4.109-2.694-10.767-3.904-15.671-2.535
			c-1.781-1.028-3.625-3.604-5.425-7.374l-3.168,1.939l0.064-2.259l-2.393,0.319l-0.121-1.851l-2.271-0.455l1.907-2.534
			l-2.211-0.915l2.575-3.06l-2.438-0.527l2.846-3.009c-0.563-0.687-1.448-0.89-2.62-0.614c0.276-0.866,0.821-1.806,1.663-2.586
			l-1.889-0.887c1.098-1.168,2.282-1.825,3.563-2.01L43.138,94.971z"/>
		<path fill="none" stroke="#0033A0" stroke-width="2.7147" stroke-miterlimit="3.864" d="M39.359,139.237
			c5.133-11.006,12.313-16.188,21.527-15.546c1.715,0.108,3.484,0.432,5.338,0.956c6.386,1.869,11.768,9.266,23.466,6.528"/>
		<path fill="#0033A0" d="M70.86,107.749c0.717,0,1.313,0.62,1.313,1.351s-0.596,1.324-1.313,1.324
			c-0.731,0-1.324-0.594-1.324-1.324S70.129,107.749,70.86,107.749 M60.977,109.329c1.051-1.598,3.395-1.486,4.244,0.32
			c0.279,0.549,0.458,0.934,0.477,1.527l0.051,3.063c-0.248,4.063-4.313,3.764-5.23,1.299c-0.181-0.482-0.228-1.323-0.317-2.031
			l0.317-2.72C60.611,110.22,60.658,109.83,60.977,109.329 M55.003,107.731c0.732,0,1.325,0.589,1.325,1.347
			c0,0.708-0.593,1.322-1.325,1.322c-0.729,0-1.326-0.614-1.326-1.322C53.677,108.32,54.273,107.731,55.003,107.731"/>
		<path fill="#0033A0" stroke="#FFFFFF" d="M89.488,91.5H37.762v46.979h51.727V91.5z M35.842,140.425V89.584l158.295-0.01
			l0.021,50.851H35.842z"/>
		<path fill="#FFFFFF" d="M186.812,126.177c-0.972,1.163-1.921,1.995-2.826,2.532c-0.93,0.534-1.88,0.813-2.819,0.813
			c-1.264,0-2.268-0.466-2.965-1.207c-0.689-0.755-1.048-1.914-1.048-3.342c0-2.215,2.883-4.522,8.687-6.9l0.806-0.369v-2.244
			c0-1.21-0.249-2.169-0.712-2.792c-0.563-0.612-1.311-0.912-2.391-0.912c-0.759,0-1.333,0.126-1.721,0.459
			c-0.346,0.296-0.576,0.781-0.692,1.544c-0.137,1.157-0.426,1.905-0.802,2.183c-0.386,0.354-0.972,0.524-1.762,0.524
			c-0.271,0-0.463-0.072-0.564-0.264c-0.086-0.143-0.177-0.354-0.177-0.742c0-0.719,0.136-1.313,0.376-1.826
			c0.249-0.473,0.791-1.08,1.658-1.752c1.307-1.045,2.502-1.82,3.478-2.297c0.993-0.504,1.878-0.733,2.704-0.733
			c0.771,0,1.489,0.127,2.089,0.419c0.657,0.354,1.188,0.791,1.604,1.34c0.434,0.548,0.737,1.18,0.863,1.987
			c0.164,0.776,0.217,2.21,0.217,4.305v6.643c-0.025,1.291,0.083,2.135,0.217,2.456c0.17,0.39,0.43,0.563,0.887,0.563
			c0.149,0,0.294-0.062,0.482-0.108c0.147-0.065,0.311-0.21,0.491-0.376l-0.042,3.453c-0.302,0-3.3,0-3.332-0.011
			c-0.823-0.278-1.463-0.278-1.91-0.813C187.128,128.135,186.931,127.34,186.812,126.177 M186.584,119.181
			c-2.019,0.697-3.402,1.395-4.175,2.044c-0.744,0.697-1.149,1.626-1.149,2.724c0,0.912,0.185,1.658,0.542,2.131
			c0.376,0.484,0.939,0.751,1.586,0.751c0.64,0,1.191-0.213,1.746-0.626c0.562-0.429,1.012-0.986,1.45-1.722V119.181"/>
		<path fill="none" stroke="#FFFFFF" stroke-width="0.5307" d="M186.812,126.177c-0.972,1.163-1.921,1.995-2.826,2.532
			c-0.93,0.534-1.88,0.813-2.819,0.813c-1.264,0-2.268-0.466-2.965-1.207c-0.689-0.755-1.048-1.914-1.048-3.342
			c0-2.215,2.883-4.522,8.687-6.9l0.806-0.369v-2.244c0-1.21-0.249-2.169-0.712-2.792c-0.563-0.612-1.311-0.912-2.391-0.912
			c-0.759,0-1.333,0.126-1.721,0.459c-0.346,0.296-0.576,0.781-0.692,1.544c-0.137,1.157-0.426,1.905-0.802,2.183
			c-0.386,0.354-0.972,0.524-1.762,0.524c-0.271,0-0.463-0.072-0.564-0.264c-0.086-0.143-0.177-0.354-0.177-0.742
			c0-0.719,0.136-1.313,0.376-1.826c0.249-0.473,0.791-1.08,1.658-1.752c1.307-1.045,2.502-1.82,3.478-2.297
			c0.993-0.504,1.878-0.733,2.704-0.733c0.771,0,1.489,0.127,2.089,0.419c0.657,0.354,1.188,0.791,1.604,1.34
			c0.434,0.548,0.737,1.18,0.863,1.987c0.164,0.776,0.217,2.21,0.217,4.305v6.643c-0.025,1.291,0.083,2.135,0.217,2.456
			c0.17,0.39,0.43,0.563,0.887,0.563c0.149,0,0.294-0.062,0.482-0.108c0.147-0.065,0.311-0.21,0.491-0.376l-0.042,3.453
			c-0.302,0-3.3,0-3.332-0.011c-0.823-0.278-1.463-0.278-1.91-0.813C187.128,128.135,186.931,127.34,186.812,126.177
			 M186.584,119.181c-2.019,0.697-3.402,1.395-4.175,2.044c-0.744,0.697-1.149,1.626-1.149,2.724c0,0.912,0.185,1.658,0.542,2.131
			c0.376,0.484,0.939,0.751,1.586,0.751c0.64,0,1.191-0.213,1.746-0.626c0.562-0.429,1.012-0.986,1.45-1.722V119.181"/>
		<path fill="#FFFFFF" d="M166.278,129.532l-0.064-1.784c0.968,0,1.596-0.117,1.806-0.271c0.221-0.209,0.396-0.729,0.396-1.701
			v-0.408l0.087-24.986l-2.224-0.779v-1.088c1.148-0.23,2.137-0.6,3.099-1.027c0.835-0.359,1.734-0.816,2.445-1.378h0.856
			l-0.054,29.498c0,1.038,0.071,1.661,0.283,1.854c0.175,0.17,0.738,0.287,1.428,0.287h0.514v1.784H166.278"/>
		<path fill="none" stroke="#FFFFFF" stroke-width="0.5307" d="M166.278,129.532l-0.064-1.784c0.968,0,1.596-0.117,1.806-0.271
			c0.221-0.209,0.396-0.729,0.396-1.701v-0.408l0.087-24.986l-2.224-0.779v-1.088c1.148-0.23,2.137-0.6,3.099-1.027
			c0.835-0.359,1.734-0.816,2.445-1.378h0.856l-0.054,29.498c0,1.038,0.071,1.661,0.283,1.854c0.175,0.17,0.738,0.287,1.428,0.287
			h0.514v1.784H166.278"/>
		<path fill="#FFFFFF" d="M158.261,126.177c-0.982,1.163-1.965,1.995-2.875,2.532c-0.874,0.534-1.839,0.813-2.756,0.813
			c-1.273,0-2.283-0.466-2.998-1.207c-0.69-0.755-1.022-1.914-1.022-3.342c0-2.215,2.883-4.522,8.669-6.9l0.781-0.369l0.009-2.244
			c0-1.21-0.205-2.169-0.732-2.792c-0.542-0.612-1.314-0.912-2.337-0.912c-0.771,0-1.333,0.126-1.69,0.459
			c-0.397,0.296-0.596,0.781-0.708,1.544c-0.177,1.157-0.44,1.905-0.859,2.183c-0.354,0.354-0.939,0.524-1.709,0.524
			c-0.253,0-0.462-0.072-0.577-0.264c-0.134-0.143-0.206-0.354-0.206-0.742c0-0.719,0.177-1.313,0.404-1.826
			c0.202-0.473,0.787-1.08,1.669-1.752c1.329-1.045,2.496-1.82,3.478-2.297c1.016-0.504,1.88-0.733,2.677-0.733
			c0.791,0,1.501,0.127,2.116,0.419c0.625,0.354,1.182,0.791,1.618,1.34c0.336,0.548,0.661,1.18,0.827,1.987
			c0.17,0.776,0.228,2.21,0.228,4.305l-0.018,6.643c0,1.291,0.083,2.135,0.249,2.456c0.179,0.39,0.419,0.563,0.845,0.563
			c0.148,0,0.322-0.062,0.524-0.108c0.146-0.065,0.313-0.21,0.469-0.376l0.091,3.453c-0.199,0-3.413,0-3.453-0.011
			c-0.802-0.278-1.524-0.278-1.914-0.813C158.621,128.135,158.329,127.34,158.261,126.177 M158.06,119.181
			c-2.078,0.697-3.456,1.405-4.188,2.044c-0.766,0.697-1.159,1.626-1.159,2.724c0,0.912,0.191,1.658,0.574,2.131
			c0.368,0.484,0.881,0.751,1.537,0.751c0.575,0,1.208-0.213,1.749-0.626c0.6-0.429,1.037-0.986,1.478-1.722L158.06,119.181"/>
		<path fill="none" stroke="#FFFFFF" stroke-width="0.5307" d="M158.261,126.177c-0.982,1.163-1.965,1.995-2.875,2.532
			c-0.874,0.534-1.839,0.813-2.756,0.813c-1.273,0-2.283-0.466-2.998-1.207c-0.69-0.755-1.022-1.914-1.022-3.342
			c0-2.215,2.883-4.522,8.669-6.9l0.781-0.369l0.009-2.244c0-1.21-0.205-2.169-0.732-2.792c-0.542-0.612-1.314-0.912-2.337-0.912
			c-0.771,0-1.333,0.126-1.69,0.459c-0.397,0.296-0.596,0.781-0.708,1.544c-0.177,1.157-0.44,1.905-0.859,2.183
			c-0.354,0.354-0.939,0.524-1.709,0.524c-0.253,0-0.462-0.072-0.577-0.264c-0.134-0.143-0.206-0.354-0.206-0.742
			c0-0.719,0.177-1.313,0.404-1.826c0.202-0.473,0.787-1.08,1.669-1.752c1.329-1.045,2.496-1.82,3.478-2.297
			c1.016-0.504,1.88-0.733,2.677-0.733c0.791,0,1.501,0.127,2.116,0.419c0.625,0.354,1.182,0.791,1.618,1.34
			c0.336,0.548,0.661,1.18,0.827,1.987c0.17,0.776,0.228,2.21,0.228,4.305l-0.018,6.643c0,1.291,0.083,2.135,0.249,2.456
			c0.179,0.39,0.419,0.563,0.845,0.563c0.148,0,0.322-0.062,0.524-0.108c0.146-0.065,0.313-0.21,0.469-0.376l0.091,3.453
			c-0.199,0-3.413,0-3.453-0.011c-0.802-0.278-1.524-0.278-1.914-0.813C158.621,128.135,158.329,127.34,158.261,126.177
			 M158.06,119.181c-2.078,0.697-3.456,1.405-4.188,2.044c-0.766,0.697-1.159,1.626-1.159,2.724c0,0.912,0.191,1.658,0.574,2.131
			c0.368,0.484,0.881,0.751,1.537,0.751c0.575,0,1.208-0.213,1.749-0.626c0.6-0.429,1.037-0.986,1.478-1.722L158.06,119.181"/>
		<path fill="#FFFFFF" d="M139.589,126.079c-1.183,1.188-2.273,2.093-3.226,2.63c-0.911,0.534-1.891,0.813-2.871,0.813
			c-1.486,0-2.559-0.571-3.154-1.647c-0.625-1.038-0.916-3.014-0.916-5.827l0.023-9.125c0-0.644-0.451-1.167-1.344-1.503
			c-0.394-0.098-0.736-0.198-0.938-0.316v-1.002c0.471,0,1.274-0.085,2.351-0.255c1.088-0.179,2.492-0.54,4.176-0.868l-0.033,13.775
			c0,1.174,0.235,2.082,0.64,2.686c0.408,0.632,1.055,0.915,1.911,0.915c0.585,0,1.188-0.177,1.704-0.517
			c0.593-0.375,1.136-0.834,1.658-1.477l0.02-11.438c0-0.708-0.542-1.25-1.595-1.503c-0.455-0.126-0.785-0.198-1.076-0.316v-1.002
			c1.178-0.145,2.326-0.34,3.485-0.517c1.171-0.191,2.286-0.379,3.402-0.606l-0.04,15.426c0,1.163,0.04,1.867,0.261,2.16
			c0.189,0.272,0.574,0.43,1.159,0.43c0.032,0,0.155,0,0.281-0.069h0.325l-0.147,2.608h-6.056V126.079"/>
		<path fill="none" stroke="#FFFFFF" stroke-width="0.5307" d="M139.589,126.079c-1.183,1.188-2.273,2.093-3.226,2.63
			c-0.911,0.534-1.891,0.813-2.871,0.813c-1.486,0-2.559-0.571-3.154-1.647c-0.625-1.038-0.916-3.014-0.916-5.827l0.023-9.125
			c0-0.644-0.451-1.167-1.344-1.503c-0.394-0.098-0.736-0.198-0.938-0.316v-1.002c0.471,0,1.274-0.085,2.351-0.255
			c1.088-0.179,2.492-0.54,4.176-0.868l-0.033,13.775c0,1.174,0.235,2.082,0.64,2.686c0.408,0.632,1.055,0.915,1.911,0.915
			c0.585,0,1.188-0.177,1.704-0.517c0.593-0.375,1.136-0.834,1.658-1.477l0.02-11.438c0-0.708-0.542-1.25-1.595-1.503
			c-0.455-0.126-0.785-0.198-1.076-0.316v-1.002c1.178-0.145,2.326-0.34,3.485-0.517c1.171-0.191,2.286-0.379,3.402-0.606
			l-0.04,15.426c0,1.163,0.04,1.867,0.261,2.16c0.189,0.272,0.574,0.43,1.159,0.43c0.032,0,0.155,0,0.281-0.069h0.325l-0.147,2.608
			h-6.056V126.079"/>
		<path fill="#FFFFFF" d="M95.574,129.488c1.521-1.104,2.954-1.929,4.402-2.638c2.485,1.678,5.443,2.582,8.68,2.582
			c2.893,0,5.519-0.724,7.892-2.093c1.225,0.621,2.441,1.369,3.57,2.182l10.125-0.033c-3.069-2.618-6.146-4.54-9.394-5.728
			c2.297-2.745,3.633-6.245,3.633-10.049c0.042-8.7-7.057-15.798-15.743-15.798c-8.763,0-15.903,7.098-15.936,15.798
			c-0.019,5.14,2.532,9.771,6.441,12.678c-0.782,0.357-1.522,0.742-2.295,1.17L95.574,129.488 M102.743,125.775
			c3.926-1.159,7.592-0.827,10.973,0.374c-1.521,1.682-3.298,2.686-5.302,2.686C106.275,128.835,104.3,127.704,102.743,125.775
			 M115.965,122.651c-4.095-0.5-8.605,0.282-13.794,2.404c-1.963-2.732-3.175-6.778-3.175-11.21
			c0.02-8.307,4.293-15.007,9.482-15.007c5.165,0,9.322,6.7,9.313,15.007C117.792,117.129,117.09,120.156,115.965,122.651"/>
		<path fill="none" stroke="#FFFFFF" stroke-width="0.5307" d="M95.574,129.488c1.521-1.104,2.954-1.929,4.402-2.638
			c2.485,1.678,5.443,2.582,8.68,2.582c2.893,0,5.519-0.724,7.892-2.093c1.225,0.621,2.441,1.369,3.57,2.182l10.125-0.033
			c-3.069-2.618-6.146-4.54-9.394-5.728c2.297-2.745,3.633-6.245,3.633-10.049c0.042-8.7-7.057-15.798-15.743-15.798
			c-8.763,0-15.903,7.098-15.936,15.798c-0.019,5.14,2.532,9.771,6.441,12.678c-0.782,0.357-1.522,0.742-2.295,1.17L95.574,129.488
			 M102.743,125.775c3.926-1.159,7.592-0.827,10.973,0.374c-1.521,1.682-3.298,2.686-5.302,2.686
			C106.275,128.835,104.3,127.704,102.743,125.775 M115.965,122.651c-4.095-0.5-8.605,0.282-13.794,2.404
			c-1.963-2.732-3.175-6.778-3.175-11.21c0.02-8.307,4.293-15.007,9.482-15.007c5.165,0,9.322,6.7,9.313,15.007
			C117.792,117.129,117.09,120.156,115.965,122.651"/>
	</g>
</g>
</svg>
