<?xml version="1.0" encoding="utf-8"?>
<!-- Generator: Adobe Illustrator 16.0.0, SVG Export Plug-In . SVG Version: 6.00 Build 0)  -->
<!DOCTYPE svg PUBLIC "-//W3C//DTD SVG 1.1//EN" "http://www.w3.org/Graphics/SVG/1.1/DTD/svg11.dtd">
<svg version="1.1" xmlns="http://www.w3.org/2000/svg" xmlns:xlink="http://www.w3.org/1999/xlink" x="0px" y="0px" width="230px"
	 height="230px" viewBox="0 0 230 230" enable-background="new 0 0 230 230" xml:space="preserve">
<g id="Capa_1">
</g>
<g id="Modo_de_aislamiento">
	<rect fill-rule="evenodd" clip-rule="evenodd" fill="#FFFFFF" width="230" height="230"/>
	<g>
		<path fill="#FF8300" d="M198.218,121.582c-3.497,4.123-9.592-1.285-6.507-5.082l4.334-5.766l-4.274-5.816
			c-3.047-3.818,3.106-9.338,6.562-5.174l6.41,8.635c1.149,1.578,1.3,3.314-0.026,4.797L198.218,121.582z"/>
		<path fill="#0082CA" d="M189.035,123.029c0.543,0,0.977,0.42,0.977,0.959c0,0.535-0.434,0.969-0.98,0.969
			c-0.552,0-0.996-0.434-0.996-0.969c0-0.539,0.444-0.959,0.996-0.959H189.035z M189.023,123.219c-0.415,0-0.738,0.354-0.738,0.77
			c0,0.43,0.323,0.766,0.75,0.766c0.416,0.004,0.729-0.336,0.729-0.766c0-0.416-0.313-0.77-0.732-0.77H189.023z M188.876,124.48
			h-0.22v-0.951c0.089-0.016,0.208-0.031,0.367-0.031c0.18,0,0.261,0.031,0.326,0.078c0.058,0.041,0.102,0.107,0.102,0.199
			c0,0.119-0.092,0.197-0.198,0.232v0.014c0.091,0.027,0.139,0.098,0.171,0.225c0.027,0.15,0.051,0.207,0.066,0.234h-0.231
			c-0.03-0.027-0.046-0.115-0.083-0.234c-0.01-0.094-0.072-0.139-0.193-0.139h-0.106V124.48z M188.88,123.949h0.103
			c0.127,0,0.23-0.047,0.23-0.146c0-0.084-0.071-0.143-0.208-0.143c-0.062,0-0.097,0.008-0.125,0.012V123.949z"/>
		<path fill="#0082CA" d="M35.104,125.797c-3.66,0-7.279-1.113-9.448-2.906c-1.644-1.344-1.586-3.484-0.696-4.822
			c0.03-0.039,0.062-0.082,0.102-0.117c1.42-1.42,2.993-1.535,4.457-0.346c1.363,0.92,3.967,1.844,6.348,1.844
			c2.529,0,3.938-0.971,4.173-2.895c-0.22-1.732-2.726-2.434-5.626-3.248c-4.631-1.295-10.391-2.914-9.621-9.975
			c0.455-3.834,3.961-7.689,10.774-7.689c3.023,0,5.905,0.881,7.912,2.42c1.21,0.979,1.649,2.322,1.197,3.607
			c-0.433,1.221-1.563,2.047-2.812,2.047c-0.622,0-1.23-0.211-1.775-0.6c-1.301-0.82-3.337-1.367-5.082-1.367
			c-1.512,0-3.399,0.385-3.768,2.203c-0.318,1.955,1.883,2.67,5.503,3.672c4.477,1.238,10.052,2.779,9.885,9.072
			C46.443,123.41,40.302,125.797,35.104,125.797 M26.25,119.021c-0.395,0.658-0.52,1.863,0.42,2.633
			c1.897,1.57,5.127,2.541,8.434,2.541c4.694,0,9.77-1.982,9.924-7.541c0.135-5.039-4.365-6.281-8.711-7.486
			c-3.555-0.982-7.229-1.998-6.648-5.5c0.451-2.248,2.395-3.52,5.338-3.52c2.061,0,4.404,0.646,5.96,1.629
			c0.014,0.012,0.03,0.02,0.044,0.031c0.277,0.203,0.561,0.307,0.854,0.307c0.56,0,1.099-0.402,1.301-0.98
			c0.129-0.369,0.217-1.094-0.678-1.816c-1.713-1.316-4.242-2.076-6.921-2.076c-4.2,0-8.669,1.938-9.187,6.264
			c-0.621,5.713,3.998,7.01,8.463,8.26c3.366,0.943,6.547,1.836,6.798,4.727c0.006,0.051,0.006,0.102,0,0.154
			c-0.298,2.799-2.402,4.404-5.774,4.404c-2.439,0-5.432-0.881-7.279-2.141c-0.019-0.012-0.036-0.031-0.057-0.043
			c-0.383-0.318-0.743-0.477-1.066-0.477C27.09,118.391,26.693,118.596,26.25,119.021"/>
		<path fill="#0082CA" d="M68.176,124.988H53.763c-1.784,0-3.178-1.396-3.178-3.176v-21.771c0-1.813,1.364-3.18,3.178-3.18h13.763
			c1.313,0,2.109,0.559,2.545,1.027c0.559,0.594,0.871,1.391,0.871,2.244c0,1.645-1.176,3.314-3.416,3.314H57.281v4.15h8.863
			c2.201,0,3.359,1.662,3.359,3.311c0,1.646-1.158,3.311-3.359,3.311h-8.863v4.148h10.895c2.285,0,3.519,1.744,3.519,3.377
			c0,0.861-0.323,1.658-0.898,2.244C70.348,124.445,69.531,124.988,68.176,124.988 M53.763,98.463c-0.914,0-1.574,0.662-1.574,1.578
			v21.771c0,0.9,0.675,1.574,1.574,1.574h14.413c0.634,0,1.146-0.176,1.482-0.52c0.277-0.285,0.436-0.682,0.436-1.123
			c0-0.852-0.6-1.775-1.918-1.775H56.484c-0.441,0-0.799-0.361-0.799-0.801v-5.75c0-0.443,0.357-0.801,0.799-0.801h9.66
			c1.214,0,1.76-0.859,1.76-1.709c0-0.852-0.546-1.713-1.76-1.713h-9.66c-0.441,0-0.799-0.361-0.799-0.801v-5.748
			c0-0.441,0.357-0.803,0.799-0.803h11.041c1.25,0,1.815-0.859,1.815-1.711c0-0.77-0.478-1.67-1.815-1.67H53.763z"/>
		<path fill="#0082CA" d="M95.381,125.063c-1.104,0-2.139-0.543-2.92-1.529l-0.024-0.035l-5.551-7.939h-4.802v6.139
			c0,2.201-1.713,3.354-3.402,3.354c-1.637,0-3.294-1.125-3.294-3.277v-21.771c0-1.762,1.36-3.141,3.101-3.141h10.193
			c5.777,0,8.612,4.072,9.284,7.557c0.672,3.48-0.47,7.721-4.407,9.82l4.445,5.416c0.012,0.021,0.031,0.041,0.043,0.064
			c0.785,1.158,0.896,2.459,0.308,3.564C97.781,124.361,96.615,125.063,95.381,125.063 M93.733,122.563
			c0.472,0.586,1.042,0.898,1.647,0.898c0.648,0,1.263-0.363,1.563-0.928c0.299-0.566,0.228-1.236-0.205-1.891l-5.07-6.182
			c-0.163-0.197-0.219-0.459-0.155-0.705c0.063-0.25,0.238-0.449,0.476-0.543c3.876-1.555,5.004-5.389,4.407-8.494
			c-0.557-2.887-2.912-6.256-7.714-6.256H78.488c-0.856,0-1.503,0.662-1.503,1.539v21.771c0,1.24,0.914,1.676,1.696,1.676
			c0.667,0,1.805-0.365,1.805-1.752v-6.939c0-0.443,0.357-0.797,0.801-0.797h6.018c0.26,0,0.505,0.127,0.656,0.342L93.733,122.563z
			 M88.682,111.15h-7.395c-0.443,0-0.801-0.357-0.801-0.801v-8.049c0-0.439,0.357-0.801,0.801-0.801h7.395
			c1.447,0,2.66,0.52,3.51,1.498c0.736,0.857,1.146,2.002,1.146,3.236C93.337,108.617,91.705,111.15,88.682,111.15 M82.084,109.553
			h6.598c2.1,0,3.057-1.721,3.057-3.318c0-0.85-0.27-1.623-0.753-2.186c-0.547-0.627-1.324-0.947-2.304-0.947h-6.598V109.553z"/>
		<path fill="#0082CA" d="M115.057,124.988h-9.123c-1.66,0-3.445-0.992-3.445-3.176v-21.771c0-1.875,1.813-3.18,3.445-3.18h8.778
			c4.292,0,7.886,1.525,10.403,4.416c2.215,2.541,3.434,5.963,3.434,9.635C128.549,117.906,123.918,124.988,115.057,124.988
			 M105.934,98.463c-0.856,0-1.848,0.689-1.848,1.578v21.771c0,1.498,1.538,1.574,1.848,1.574h9.123
			c5.729,0,11.896-3.902,11.896-12.475c0-3.287-1.084-6.336-3.043-8.584c-2.202-2.525-5.385-3.865-9.198-3.865H105.934z
			 M114.712,120.309h-6.364c-0.439,0-0.801-0.352-0.801-0.797v-17.176c0-0.439,0.361-0.797,0.801-0.797h6.364
			c2.72,0,4.999,1.008,6.585,2.918c1.389,1.666,2.149,3.914,2.149,6.328C123.446,115.516,120.449,120.309,114.712,120.309
			 M109.148,118.711h5.563c4.683,0,7.133-3.984,7.133-7.926c0-2.041-0.63-3.924-1.776-5.301c-1.277-1.535-3.129-2.344-5.356-2.344
			h-5.563V118.711z"/>
		<path fill="#0082CA" d="M133.05,125.084c-0.353,0-0.716-0.037-1.091-0.111c-0.081-0.012-0.162-0.045-0.235-0.088
			c-1.497-0.836-2.556-2.625-1.557-4.719l11.011-21.525c0.623-1.225,1.828-1.99,3.145-1.99c1.311,0,2.482,0.773,3.049,2.021
			l10.797,21.479c0.563,1.066,0.547,2.205-0.048,3.184c-0.63,1.051-1.834,1.729-3.058,1.729c-1.227,0-2.246-0.67-2.783-1.844
			l-1.455-2.91h-13.151l-1.43,2.932C135.687,124.426,134.547,125.084,133.05,125.084 M132.397,123.426
			c0.224,0.035,0.442,0.061,0.652,0.061c0.868,0,1.459-0.318,1.751-0.941l1.654-3.385c0.135-0.273,0.415-0.449,0.721-0.449h14.145
			c0.301,0,0.578,0.176,0.713,0.445l1.689,3.369c0.359,0.781,0.926,0.936,1.34,0.936c0.654,0,1.349-0.389,1.689-0.951
			c0.204-0.34,0.375-0.904-0.008-1.629l-10.816-21.518c-0.325-0.719-0.908-1.111-1.605-1.111c-0.724,0-1.362,0.416-1.721,1.115
			l-10.999,21.506C131.043,122.043,131.631,122.945,132.397,123.426 M148.596,115.25h-9.043c-0.278,0-0.536-0.143-0.679-0.377
			c-0.15-0.234-0.163-0.531-0.038-0.777l4.713-9.467c0.137-0.279,0.416-0.453,0.728-0.445c0.312,0.004,0.587,0.188,0.716,0.469
			l4.334,9.469c0.108,0.244,0.091,0.535-0.059,0.764C149.123,115.111,148.869,115.25,148.596,115.25 M140.845,113.652h6.507
			l-3.115-6.813L140.845,113.652z"/>
		<path fill="#0082CA" d="M183.75,124.988c-1.516,0-2.367-0.361-3.652-1.555c-0.027-0.027-0.056-0.059-0.083-0.092l-11.261-14.285
			v12.49c0,2.025-1.32,3.441-3.211,3.441c-1.693,0-3.41-1.182-3.41-3.441v-21.201c0-2.34,1.043-3.525,3.1-3.525
			c1.656,0,2.193,0.523,3.171,1.465l0.104,0.102c0.028,0.023,0.052,0.053,0.07,0.08l11.266,14.088V99.961
			c0-1.625,1.376-3.441,3.216-3.441c1.778,0,3.521,1.705,3.521,3.441v21.586c0,1.189-0.449,2.748-2.597,3.406
			C183.908,124.977,183.828,124.988,183.75,124.988 M165.232,98.424c-1.145,0-1.498,0.447-1.498,1.922v21.201
			c0,1.268,0.908,1.84,1.809,1.84c1.01,0,1.613-0.686,1.613-1.84V106.75c0-0.346,0.214-0.646,0.539-0.754
			c0.317-0.115,0.678-0.012,0.889,0.258l12.649,16.051c0.931,0.855,1.384,1.07,2.394,1.082c0.949-0.322,1.355-0.877,1.355-1.84
			V99.961c0-0.785-0.951-1.844-1.923-1.844c-0.853,0-1.614,1.035-1.614,1.844v14.873c0,0.342-0.218,0.643-0.535,0.758
			c-0.322,0.111-0.678,0.012-0.892-0.258l-12.656-15.828l-0.067-0.068C166.383,98.559,166.242,98.424,165.232,98.424"/>
		<path fill="#FFFFFF" d="M25.588,103.414c0.88-7.438,12.113-8.781,17.402-4.717c2.606,2.109-0.154,5.443-2.455,3.758
			c-2.834-1.805-9.273-2.645-10.08,1.34c-1.033,6.285,15.644,2.686,15.369,12.879c-0.266,9.738-14.372,9.967-19.662,5.598
			c-1.264-1.035-1.225-2.719-0.535-3.758c0.996-0.996,2.109-1.34,3.41-0.266c3.143,2.148,11.23,3.754,11.804-1.689
			C40.346,110.889,24.398,114.299,25.588,103.414"/>
		<path fill="#FFFFFF" d="M53.763,124.188c-1.345,0-2.379-1.035-2.379-2.375v-21.771c0-1.381,1.034-2.379,2.379-2.379h13.763
			c3.524,0,3.449,4.984,0,4.984H56.484v5.748h9.66c3.41,0,3.41,5.023,0,5.023h-9.66v5.75h11.691c3.482,0,3.754,5.02,0,5.02H53.763z"
			/>
		<path fill="#FFFFFF" d="M81.287,121.697c0,3.334-5.099,3.449-5.099,0.076v-21.771c0-1.342,1.034-2.34,2.3-2.34h10.193
			c9.736,0,11.732,13.037,3.604,16.291l5.099,6.209c1.994,2.955-1.994,5.789-4.296,2.875l-5.784-8.279h-6.018V121.697z
			 M81.287,110.35h7.395c4.984,0,5.293-8.049,0-8.049h-7.395V110.35z"/>
		<path fill="#FFFFFF" d="M105.934,124.188c-1.264,0-2.645-0.686-2.645-2.375v-21.771c0-1.381,1.381-2.379,2.645-2.379h8.778
			c17.517,0,17.136,26.525,0.345,26.525H105.934z M108.348,102.336v17.176h6.364c10.349,0,10.813-17.176,0-17.176H108.348z"/>
		<path fill="#FFFFFF" d="M132.113,124.188c-1.225-0.686-1.996-2.066-1.225-3.68l10.999-21.502c1.036-2.033,3.792-2.109,4.758,0
			l10.809,21.502c1.569,2.994-3.065,5.369-4.444,2.379l-1.689-3.375h-14.145l-1.646,3.375
			C134.913,124.188,133.494,124.457,132.113,124.188 M148.596,114.453l-4.329-9.473l-4.714,9.473H148.596z"/>
		<path fill="#FFFFFF" d="M162.934,100.346c0-1.379,0.309-2.725,2.299-2.725c1.379,0,1.686,0.346,2.725,1.346l12.688,15.867V99.961
			c0-1.264,1.108-2.645,2.415-2.645c1.38,0,2.722,1.381,2.722,2.645v21.586c0,1.686-1.035,2.336-2.031,2.641
			c-1.341,0-1.997-0.305-3.105-1.34l-12.688-16.098v14.797c0,1.686-1.039,2.641-2.414,2.641c-1.383,0-2.609-0.955-2.609-2.641
			V100.346z"/>
		<path fill="#003DA6" d="M25.588,103.414c0.88-7.438,12.113-8.781,17.402-4.717c2.606,2.109-0.154,5.443-2.455,3.758
			c-2.834-1.805-9.273-2.645-10.08,1.34c-1.033,6.285,15.644,2.686,15.369,12.879c-0.266,9.738-14.372,9.967-19.662,5.598
			c-1.264-1.035-1.225-2.719-0.535-3.758c0.996-0.996,2.109-1.34,3.41-0.266c3.143,2.148,11.23,3.754,11.804-1.689
			C40.346,110.889,24.398,114.299,25.588,103.414"/>
		<path fill="#003DA6" d="M53.763,124.188c-1.345,0-2.379-1.035-2.379-2.375v-21.771c0-1.381,1.034-2.379,2.379-2.379h13.763
			c3.524,0,3.449,4.984,0,4.984H56.484v5.748h9.66c3.41,0,3.41,5.023,0,5.023h-9.66v5.75h11.691c3.482,0,3.754,5.02,0,5.02H53.763z"
			/>
		<path fill="#003DA6" d="M81.287,121.697c0,3.334-5.099,3.449-5.099,0.076v-21.771c0-1.342,1.034-2.34,2.3-2.34h10.193
			c9.736,0,11.732,13.037,3.604,16.291l5.099,6.209c1.994,2.955-1.994,5.789-4.296,2.875l-5.784-8.279h-6.018V121.697z
			 M81.287,110.35h7.395c4.984,0,5.293-8.049,0-8.049h-7.395V110.35z"/>
		<path fill="#003DA6" d="M105.934,124.188c-1.264,0-2.645-0.686-2.645-2.375v-21.771c0-1.381,1.381-2.379,2.645-2.379h8.778
			c17.517,0,17.136,26.525,0.345,26.525H105.934z M108.348,102.336v17.176h6.364c10.349,0,10.813-17.176,0-17.176H108.348z"/>
		<path fill="#003DA6" d="M132.113,124.188c-1.225-0.686-1.996-2.066-1.225-3.68l10.999-21.502c1.036-2.033,3.792-2.109,4.758,0
			l10.809,21.502c1.569,2.994-3.065,5.369-4.444,2.379l-1.689-3.375h-14.145l-1.646,3.375
			C134.913,124.188,133.494,124.457,132.113,124.188 M148.596,114.453l-4.329-9.473l-4.714,9.473H148.596z"/>
		<path fill="#003DA6" d="M162.934,100.346c0-1.379,0.309-2.725,2.299-2.725c1.379,0,1.686,0.346,2.725,1.346l12.688,15.867V99.961
			c0-1.264,1.108-2.645,2.415-2.645c1.38,0,2.722,1.381,2.722,2.645v21.586c0,1.686-1.035,2.336-2.031,2.641
			c-1.341,0-1.997-0.305-3.105-1.34l-12.688-16.098v14.797c0,1.686-1.039,2.641-2.414,2.641c-1.383,0-2.609-0.955-2.609-2.641
			V100.346z"/>
		<rect x="96.642" y="133.77" fill="#FF8300" width="4.438" height="0.588"/>
		<path fill="#12A7DA" d="M103.253,130.531c0.151-1.254,2.046-1.479,2.935-0.797c0.439,0.357-0.024,0.92-0.412,0.635
			c-0.477-0.303-1.564-0.445-1.699,0.225c-0.173,1.059,2.635,0.453,2.591,2.174c-0.048,1.641-2.423,1.682-3.315,0.939
			c-0.213-0.17-0.205-0.455-0.091-0.631c0.171-0.166,0.356-0.227,0.575-0.047c0.531,0.365,1.895,0.639,1.99-0.281
			C105.745,131.791,103.055,132.367,103.253,130.531"/>
		<path fill="#12A7DA" d="M107.805,134.031c-0.226,0-0.404-0.174-0.404-0.4v-3.666c0-0.234,0.179-0.404,0.404-0.404h2.32
			c0.594,0,0.578,0.84,0,0.84h-1.864v0.971h1.63c0.574,0,0.574,0.846,0,0.846h-1.63v0.971h1.975c0.587,0,0.63,0.844,0,0.844H107.805
			z"/>
		<path fill="#12A7DA" d="M112.242,133.611c0,0.564-0.861,0.584-0.861,0.016v-3.67c0-0.227,0.179-0.396,0.389-0.396h1.719
			c1.644,0,1.98,2.195,0.609,2.746l0.859,1.047c0.334,0.504-0.336,0.977-0.727,0.484l-0.974-1.396h-1.015V133.611z M112.242,131.701
			h1.246c0.843,0,0.895-1.361,0-1.361h-1.246V131.701z"/>
		<path fill="#12A7DA" d="M117.209,133.738l-1.704-3.572c-0.25-0.508,0.511-0.928,0.797-0.393l0.573,1.301l0.743,1.705l0.731-1.705
			l0.577-1.301c0.255-0.488,1.003-0.182,0.784,0.357l-1.648,3.607C117.916,134.146,117.455,134.246,117.209,133.738"/>
		<path fill="#12A7DA" d="M120.401,129.947c0-0.527,0.853-0.547,0.853,0v3.691c0,0.537-0.853,0.549-0.853,0V129.947z"/>
		<path fill="#12A7DA" d="M122.051,131.764c0-1.244,0.781-2.318,2.268-2.318c0.562,0,1.008,0.166,1.479,0.574
			c0.175,0.162,0.188,0.447,0.018,0.627c-0.173,0.154-0.438,0.135-0.595-0.02c-0.264-0.277-0.537-0.357-0.902-0.357
			c-0.994,0-1.475,0.705-1.475,1.494c0,0.801,0.472,1.539,1.475,1.539c0.365,0,0.71-0.15,1.008-0.412
			c0.202-0.154,0.478-0.08,0.595,0.074c0.103,0.143,0.154,0.381-0.073,0.607c-0.452,0.42-0.994,0.504-1.529,0.504
			C122.753,134.076,122.051,133.01,122.051,131.764"/>
		<path fill="#12A7DA" d="M126.805,129.947c0-0.527,0.853-0.547,0.853,0v3.691c0,0.537-0.853,0.549-0.853,0V129.947z"/>
		<path fill="#12A7DA" d="M130.887,134.096c-1.193,0.051-2.435-0.742-2.435-2.324c0-1.59,1.241-2.375,2.435-2.375
			c1.132,0.061,2.313,0.842,2.313,2.375C133.2,133.303,132.019,134.096,130.887,134.096 M130.817,130.238
			c-0.726,0-1.511,0.512-1.511,1.533c0,1.016,0.785,1.531,1.511,1.531c0.741,0,1.538-0.516,1.538-1.531
			C132.355,130.75,131.559,130.238,130.817,130.238"/>
		<path fill="#12A7DA" d="M133.912,130.531c0.148-1.254,2.04-1.479,2.932-0.797c0.44,0.357-0.023,0.92-0.412,0.635
			c-0.479-0.303-1.564-0.445-1.699,0.225c-0.176,1.059,2.635,0.453,2.592,2.174c-0.044,1.641-2.427,1.682-3.316,0.939
			c-0.213-0.17-0.209-0.455-0.09-0.631c0.168-0.166,0.357-0.227,0.574-0.047c0.53,0.365,1.895,0.639,1.991-0.281
			C136.4,131.791,133.712,132.367,133.912,130.531"/>
		<path fill="#12A7DA" d="M139.79,131.764c0-1.244,0.785-2.318,2.269-2.318c0.563,0,1.008,0.166,1.479,0.574
			c0.174,0.162,0.194,0.447,0.018,0.627c-0.172,0.154-0.438,0.135-0.591-0.02c-0.268-0.277-0.537-0.357-0.905-0.357
			c-0.996,0-1.476,0.705-1.476,1.494c0,0.801,0.474,1.539,1.476,1.539c0.368,0,0.709-0.15,1.008-0.412
			c0.201-0.154,0.479-0.08,0.596,0.074c0.101,0.143,0.152,0.381-0.074,0.607c-0.453,0.42-0.994,0.504-1.529,0.504
			C140.496,134.076,139.79,133.01,139.79,131.764"/>
		<path fill="#12A7DA" d="M146.776,134.096c-1.197,0.051-2.438-0.742-2.438-2.324c0-1.59,1.241-2.375,2.438-2.375
			c1.13,0.061,2.31,0.842,2.31,2.375C149.086,133.303,147.906,134.096,146.776,134.096 M146.705,130.238
			c-0.726,0-1.515,0.512-1.515,1.533c0,1.016,0.789,1.531,1.515,1.531c0.741,0,1.536-0.516,1.536-1.531
			C148.241,130.75,147.446,130.238,146.705,130.238"/>
		<path fill="#12A7DA" d="M149.881,130.016c0-0.234,0.052-0.459,0.389-0.459c0.234,0,0.285,0.055,0.46,0.225l2.139,2.672v-2.506
			c0-0.213,0.187-0.443,0.405-0.443c0.233,0,0.459,0.23,0.459,0.443v3.641c0,0.281-0.176,0.393-0.343,0.443
			c-0.226,0-0.335-0.051-0.521-0.225l-2.139-2.713v2.494c0,0.281-0.175,0.443-0.409,0.443c-0.233,0-0.439-0.162-0.439-0.443V130.016
			z"/>
		<path fill="#12A7DA" d="M157.731,130.369h-1.13c-0.563,0-0.563-0.83,0-0.83h3.057c0.569,0,0.569,0.83,0,0.83h-1.074v3.262
			c0,0.564-0.853,0.576-0.853,0V130.369z"/>
		<path fill="#12A7DA" d="M160.059,134.031c-0.21-0.113-0.337-0.348-0.21-0.617l1.857-3.625c0.173-0.344,0.639-0.355,0.8,0
			l1.819,3.625c0.266,0.504-0.516,0.904-0.745,0.396l-0.283-0.568h-2.39l-0.277,0.568
			C160.529,134.031,160.289,134.076,160.059,134.031 M162.834,132.391l-0.729-1.598l-0.793,1.598H162.834z"/>
		<path fill="#12A7DA" d="M164.916,129.947c0-0.209,0.178-0.391,0.404-0.391c0.21,0,0.385,0.182,0.385,0.391v3.24h1.756
			c0.633,0,0.646,0.844,0,0.844h-2.141c-0.227,0-0.404-0.162-0.404-0.393V129.947z"/>
		<path fill="#12A7DA" d="M169,134.031c-0.23,0-0.4-0.174-0.4-0.4v-3.666c0-0.234,0.17-0.404,0.4-0.404h2.319
			c0.595,0,0.579,0.84,0,0.84h-1.862v0.971h1.629c0.574,0,0.574,0.846,0,0.846h-1.629v0.971h1.971c0.59,0,0.633,0.844,0,0.844H169z"
			/>
		<path fill="#12A7DA" d="M172.586,130.016c0-0.234,0.054-0.459,0.385-0.459c0.236,0,0.283,0.055,0.462,0.225l2.138,2.672v-2.506
			c0-0.213,0.188-0.443,0.404-0.443c0.233,0,0.461,0.23,0.461,0.443v3.641c0,0.281-0.176,0.393-0.342,0.443
			c-0.227,0-0.336-0.051-0.523-0.225l-2.138-2.713v2.494c0,0.281-0.179,0.443-0.408,0.443c-0.232,0-0.438-0.162-0.438-0.443V130.016
			z"/>
		<path fill="#12A7DA" d="M178.547,130.369h-1.129c-0.563,0-0.563-0.83,0-0.83h3.057c0.572,0,0.572,0.83,0,0.83h-1.07v3.262
			c0,0.564-0.857,0.576-0.857,0V130.369z"/>
		<path fill="#12A7DA" d="M183.543,134.096c-1.195,0.051-2.438-0.742-2.438-2.324c0-1.59,1.243-2.375,2.438-2.375
			c1.131,0.061,2.312,0.842,2.312,2.375C185.854,133.303,184.674,134.096,183.543,134.096 M183.468,130.238
			c-0.722,0-1.511,0.512-1.511,1.533c0,1.016,0.789,1.531,1.511,1.531c0.745,0,1.54-0.516,1.54-1.531
			C185.008,130.75,184.213,130.238,183.468,130.238"/>
	</g>
</g>
</svg>
