<?xml version="1.0" encoding="utf-8"?>
<!-- Generator: Adobe Illustrator 16.0.0, SVG Export Plug-In . SVG Version: 6.00 Build 0)  -->
<!DOCTYPE svg PUBLIC "-//W3C//DTD SVG 1.1//EN" "http://www.w3.org/Graphics/SVG/1.1/DTD/svg11.dtd">
<svg version="1.1" xmlns="http://www.w3.org/2000/svg" xmlns:xlink="http://www.w3.org/1999/xlink" x="0px" y="0px" width="230px"
	 height="230px" viewBox="0 0 230 230" enable-background="new 0 0 230 230" xml:space="preserve">
<g id="Capa_1">
</g>
<g id="Modo_de_aislamiento">
	<rect fill-rule="evenodd" clip-rule="evenodd" fill="#FFFFFF" width="230" height="230"/>
	<g>
		<path fill="#FFD100" d="M114.808,67.999c-16.456,0-29.8,13.346-29.8,29.802c0,8.756,3.776,16.625,9.785,22.072
			c-5.206-5.206-8.429-12.433-8.429-20.416c0-15.878,12.735-28.748,28.444-28.748c10.814,0,20.215,6.096,25.029,15.07
			c-4.809-7.948-13.548-13.263-23.529-13.263c-2.396,0-4.725,0.303-6.938,0.883c-5.999,1.928-11.322,6.07-14.622,12.046
			c-6.835,12.372-2.455,27.882,9.784,34.646c12.239,6.757,27.7,2.214,34.535-10.158c3.438-6.217,4.035-13.234,2.226-19.529
			c2.333,6.83,1.885,14.59-1.883,21.402c-7.084,12.831-23.217,17.478-36.043,10.396c-12.82-7.09-17.476-23.226-10.386-36.048
			c2.778-5.028,6.955-8.799,11.779-11.098c-9.396,4.348-15.913,13.834-15.913,24.848c0,15.124,12.295,27.388,27.461,27.388
			c10.163,0,19.037-5.517,23.783-13.705c2.864-4.58,4.524-9.992,4.524-15.786C144.615,81.345,131.271,67.999,114.808,67.999
			 M132.144,115.4c-5.145,4.511-11.718,6.352-18.02,5.636c5.743,0.371,11.654-1.46,16.345-5.579
			c9.331-8.192,10.33-22.307,2.233-31.535c-8.104-9.235-22.235-10.086-31.566-1.897c-4.692,4.115-7.275,9.738-7.657,15.482
			c0.107-6.344,2.789-12.615,7.933-17.129c9.673-8.492,24.389-7.529,32.876,2.143C142.777,92.194,141.814,106.915,132.144,115.4"/>
		<path fill="#F9A51A" d="M82.476,66.269c-8.32,8.212-13.477,19.608-13.477,32.217c0,4.231,0.591,8.32,1.677,12.2
			c0.146-5.028,1.024-10.122,2.731-15.134c5.697-16.722,18.665-34.105,44.139-31.514C104.647,59.052,92.396,60.803,82.476,66.269"/>
		<path fill="#FFD100" d="M99.348,136.402c-14.14-10.58-26.668-28.286-16.333-51.71c-9.167,11.268-11.044,24.15-8.357,35.711
			c7.525,13.566,21.818,22.852,38.315,23.313c-0.745-0.264-1.488-0.551-2.223-0.851C106.776,141.242,102.941,139.096,99.348,136.402
			"/>
		<path fill="#FFCA05" d="M156.854,113.452c-3.153,4.191-7.002,7.973-11.524,11.16c-14.433,10.18-35.14,16.618-54.229-0.447
			c7.754,12.015,19.197,17.781,30.839,18.925c16.457-2.814,29.875-14.501,35.157-29.974
			C157.014,113.227,156.936,113.341,156.854,113.452"/>
		<path fill="#F9A51A" d="M141.103,62.049c3.111,4.363,5.588,9.284,7.255,14.683c5.218,16.872,4.948,38.559-17.186,51.435
			c14.141-3.752,23.269-13.178,27.858-24.214c0.079-0.194,0.153-0.394,0.23-0.588c0.171-1.603,0.266-3.225,0.266-4.879
			C159.526,83.542,152.273,70.29,141.103,62.049"/>
		<path fill="#F48120" d="M87.981,61.646c0.912-0.292,1.831-0.569,2.765-0.81c4.377-1.141,8.977-1.715,13.722-1.654
			c17.658,0.249,38.203,7.214,43.613,32.241c0.783-14.322-5.11-25.75-13.899-33.52c-0.063-0.053-0.133-0.11-0.201-0.163
			c-5.964-2.895-12.651-4.52-19.719-4.52C104.456,53.222,95.395,56.352,87.981,61.646"/>
		<path fill="#E2231A" d="M70.676,110.688c-1.086-3.882-1.677-7.97-1.677-12.202c0-12.606,5.158-24.005,13.477-32.215
			c-1.456,0.805-2.864,1.688-4.214,2.639l-0.007,0.004c-8.022,5.669-14.073,13.834-17.021,22.488
			c-6.827,20.037,1.87,41.611,19.661,51.651c-6.558-8.805-10.236-19.593-10.247-30.776
			C70.649,111.746,70.658,111.218,70.676,110.688"/>
		<path fill="#E2231A" d="M112.972,143.719c-16.499-0.466-30.79-9.747-38.315-23.313c0.017,0.068,0.024,0.131,0.042,0.192v0.004
			c2.514,10.587,8.855,20.053,16.937,26.101c16.951,12.684,40.157,11.078,55.202-2.732
			C135.974,147.636,124.013,147.653,112.972,143.719"/>
		<path fill="#E2231A" d="M167.2,81.784c0.123,11.142-3.351,22.197-10.103,31.33c-5.286,15.473-18.701,27.161-35.157,29.978
			c0.481,0.042,0.961,0.104,1.44,0.129c10.623,0.697,21.286-2.399,29.365-8.095C170.044,122.93,175.683,100.359,167.2,81.784"/>
		<path fill="#E2231A" d="M141.083,62.015L141.083,62.015c0,0,0.014,0.021,0.021,0.035c11.172,8.238,18.423,21.49,18.423,36.438
			c0,1.652-0.095,3.273-0.266,4.875c3.948-9.89,4.306-20.992,1.39-30.436c-6.261-20.22-25.977-32.563-46.268-30.228
			C125.031,46.021,134.482,52.753,141.083,62.015"/>
		<path fill="#E2231A" d="M114.263,53.222c7.069,0,13.756,1.628,19.719,4.518c-8.293-7.25-19.117-11.271-29.333-11.421
			c-21.167-0.297-38.996,14.647-43.048,34.663c6.402-9.031,15.636-15.892,26.38-19.335C95.388,56.352,104.458,53.222,114.263,53.222
			"/>
		<path fill="#E2231A" d="M65.404,168.786h19.281c0,0-0.396,2.254-2.228,2.254h-5l-2.823,14.257h-5.986l2.823-14.257h-6.454
			L65.404,168.786z"/>
		<path fill="#E2231A" d="M98.049,185.297l2.582-13.25h9.831c2.939,0,5.958,1.49,5.477,3.972c-0.37,1.896-2.416,3.183-4.863,3.619
			c0,0,3.119,6.053,10.937,5.698c-0.208,1.063-0.307,1.613-0.435,2.247c-11.764,0-15.234-6.199-15.996-9.032h0.544
			c2.312,0,4.271-0.309,4.693-2.474c0.296-1.493-0.909-2.154-2.732-2.154h-1.845l-2.274,11.374H98.049z"/>
		<path fill="#E2231A" d="M116.421,183.092l2.119-11.045h9.251c3.747,0,6.201,1.499,5.657,4.275
			c-0.53,2.721-3.584,3.619-6.409,3.619h-3.933c0,0-0.661,3.293-0.869,4.306C118.702,184.23,116.421,183.092,116.421,183.092
			 M125.191,178.14c1.873,0,2.952-0.796,3.192-2.042c0.28-1.405-0.699-2.245-2.546-2.245h-1.521l-0.842,4.287H125.191z"/>
		<path fill="#E2231A" d="M95.546,183.937c-1.171,0.649-4.34,1.271-6.679,1.271c-3.736,0-5.748-0.666-7.111-1.546
			c-1.585-1.05-2.17-2.332-2.361-3.764c-0.114-0.833-0.406-3.218,1.566-5.284c1.122-1.169,3.305-2.674,8.186-2.674
			c4.074,0,6.095,1.064,6.961,2.41c0.977,1.523,0.658,3.337,0.549,3.787c0,0-0.019,0.158-0.22,0.158
			c-0.2,0-6.967-0.013-10.502-0.013c-1.326,6.149,6.835,4.544,10.023,3.392C95.775,182.703,95.707,183.049,95.546,183.937
			 M92.013,176.246c0.53-2.322-0.584-3.107-2.132-3.107c-2.593,0-3.536,2.996-3.546,3.092
			C87.179,176.23,90.392,176.246,92.013,176.246"/>
		<path fill="#E2231A" d="M150.918,183.937c-1.171,0.649-4.34,1.271-6.68,1.271c-3.735,0-5.746-0.666-7.108-1.546
			c-1.589-1.05-2.173-2.332-2.368-3.764c-0.106-0.833-0.402-3.218,1.571-5.284c1.119-1.169,3.306-2.674,8.184-2.674
			c4.072,0,6.097,1.064,6.96,2.41c0.978,1.523,0.658,3.337,0.552,3.787c0,0-0.022,0.158-0.222,0.158
			c-0.198,0-6.967-0.013-10.5-0.013c-1.326,6.149,6.832,4.544,10.021,3.392C151.146,182.703,151.079,183.049,150.918,183.937
			 M147.383,176.246c0.528-2.322-0.583-3.107-2.127-3.107c-2.598,0-3.535,2.996-3.549,3.092
			C142.547,176.23,145.767,176.246,147.383,176.246"/>
		<path fill="#E2231A" d="M158.21,183.049l2.145-11.002h-4.945l-2.584,13.25h9.864c1.831,0,2.231-2.248,2.231-2.248H158.21z"/>
		<path fill="#E2231A" d="M168.353,182.583c0.866,0,1.552,0.704,1.552,1.567c0,0.876-0.686,1.569-1.559,1.569
			c-0.86,0-1.561-0.693-1.561-1.569c0-0.863,0.7-1.567,1.561-1.567H168.353z M168.339,182.897c-0.651,0-1.175,0.563-1.175,1.26
			c0,0.7,0.523,1.247,1.182,1.247c0.662,0.007,1.197-0.547,1.197-1.247c0-0.696-0.535-1.26-1.197-1.26H168.339z M168.076,185.062
			h-0.366v-1.738c0.135-0.022,0.292-0.051,0.551-0.051c0.3,0,0.48,0.051,0.602,0.14c0.097,0.075,0.153,0.194,0.153,0.376
			c0,0.207-0.146,0.354-0.332,0.404v0.014c0.15,0.025,0.248,0.165,0.275,0.423c0.035,0.268,0.07,0.377,0.102,0.433h-0.386
			c-0.042-0.064-0.067-0.218-0.104-0.458c-0.027-0.183-0.136-0.261-0.326-0.261h-0.168V185.062z M168.076,184.06h0.18
			c0.211,0,0.377-0.07,0.377-0.254c0-0.144-0.103-0.254-0.355-0.254c-0.09,0-0.152,0-0.201,0.003V184.06z"/>
	</g>
</g>
</svg>
