<?xml version="1.0" encoding="utf-8"?>
<!-- Generator: Adobe Illustrator 16.0.0, SVG Export Plug-In . SVG Version: 6.00 Build 0)  -->
<!DOCTYPE svg PUBLIC "-//W3C//DTD SVG 1.1//EN" "http://www.w3.org/Graphics/SVG/1.1/DTD/svg11.dtd">
<svg version="1.1" xmlns="http://www.w3.org/2000/svg" xmlns:xlink="http://www.w3.org/1999/xlink" x="0px" y="0px" width="230px"
	 height="230px" viewBox="0 0 230 230" enable-background="new 0 0 230 230" xml:space="preserve">
<g id="Capa_1">
</g>
<g id="Modo_de_aislamiento">
	<rect fill-rule="evenodd" clip-rule="evenodd" fill="#FFFFFF" width="230" height="230"/>
	<g>
		<path fill-rule="evenodd" clip-rule="evenodd" fill="#192D67" d="M107.71,119.938H92.604c0,0-5.2-0.04-5.2,5.022v9.102
			c0,0-0.254,5.131,5.168,5.131h15.103v-5.131H94.16c0,0-1.557,0.069-1.557-1.694v-5.892c0,0-0.068-1.516,1.598-1.516h13.509
			V119.938z"/>
		<path fill-rule="evenodd" clip-rule="evenodd" fill="#192D67" d="M130.325,119.938h-16.182c0,0-5.168-0.04-5.168,5.022v9.102
			c0,0-0.295,5.131,5.168,5.131h16.142v-5.131h-14.593c0,0-1.549,0.069-1.549-1.694v-5.892c0,0-0.077-1.516,1.581-1.516h14.601
			V119.938z"/>
		<rect x="117.673" y="127.669" fill-rule="evenodd" clip-rule="evenodd" fill="#192D67" width="12.612" height="4.08"/>
		<path fill-rule="evenodd" clip-rule="evenodd" fill="#192D67" d="M179.454,119.938h-16.183c0,0-5.167-0.04-5.167,5.022v9.102
			c0,0-0.287,5.131,5.167,5.131h16.183v-5.131h-14.593c0,0-1.59,0.069-1.59-1.694v-5.892c0,0-0.036-1.516,1.59-1.516h14.593V119.938
			z"/>
		<rect x="166.843" y="127.669" fill-rule="evenodd" clip-rule="evenodd" fill="#192D67" width="12.579" height="4.08"/>
		<path fill-rule="evenodd" clip-rule="evenodd" fill="#192D67" d="M151.308,119.938h-19.36v19.255h5.131v-14.16h4.553v14.16h5.127
			v-14.16h4.55v14.16h5.099v-14.273C156.406,124.919,156.693,119.938,151.308,119.938"/>
		<polygon fill-rule="evenodd" clip-rule="evenodd" fill="#192D67" points="205.466,119.938 200.011,119.938 200.011,122.688 
			193.146,126.545 186.283,122.688 186.283,119.938 180.829,119.938 180.829,124.919 188.055,129.545 180.829,134.207 
			180.829,139.192 186.283,139.192 186.283,136.447 193.146,132.582 200.011,136.447 200.011,139.192 205.466,139.192 
			205.466,134.207 198.236,129.545 205.466,124.919 		"/>
		<polygon fill-rule="evenodd" clip-rule="evenodd" fill="#E32E3B" points="41.053,139.124 81.226,91.472 63.781,91.472 
			23.638,139.124 		"/>
		<polygon fill-rule="evenodd" clip-rule="evenodd" fill="#192D67" points="67.105,139.124 107.237,91.472 89.83,91.472 
			49.686,139.124 		"/>
	</g>
</g>
</svg>
