<?xml version="1.0" encoding="utf-8"?>
<!-- Generator: Adobe Illustrator 16.0.0, SVG Export Plug-In . SVG Version: 6.00 Build 0)  -->
<!DOCTYPE svg PUBLIC "-//W3C//DTD SVG 1.1//EN" "http://www.w3.org/Graphics/SVG/1.1/DTD/svg11.dtd">
<svg version="1.1" xmlns="http://www.w3.org/2000/svg" xmlns:xlink="http://www.w3.org/1999/xlink" x="0px" y="0px" width="230px"
	 height="230px" viewBox="0 0 230 230" enable-background="new 0 0 230 230" xml:space="preserve">
<g id="Capa_1">
</g>
<g id="Modo_de_aislamiento">
	<rect fill="#FFFFFF" width="230" height="230"/>
	<g>
		<path fill="#FE0000" d="M67.652,155.688c2.417-0.549,3.558-1.692,3.417-3.412c-0.263-2-1.813-3.227-4.63-3.663H53.85
			c0.973,0.46,1.465,1.071,1.477,1.837v12.838c-0.17,0.943-0.67,1.628-1.477,2.064h11.979c1.986-0.06,3.557-0.53,4.701-1.403
			c1.193-0.907,1.771-2.138,1.762-3.694C72.277,157.652,70.735,156.129,67.652,155.688 M61.277,151.115
			c2.585-0.296,3.83,0.277,3.719,1.723c0.012,2-1.223,2.806-3.719,2.389V151.115z M61.277,162.556v-5.264
			c3.719-0.373,5.428,0.582,5.152,2.873C66.113,162.737,64.396,163.534,61.277,162.556"/>
		<path fill="#FE0000" d="M164.672,125.524c0-2.458-1.498-4.983-4.477-7.577c-3.064-2.659-7.551-5.238-13.439-7.734
			c19.645-7.278,15.463-15.516-12.569-24.723l-20.301,9.968c-7.212-4.67-15.201-7.978-23.964-9.92L63.316,99.124
			c9.271,0.141,17.479,2.685,24.625,7.629v26.25c-7.694,3.462-15.865,5.169-24.525,5.14v0.864h59.323
			c8.576,0.422,16.59-0.088,24.017-1.525c5.873-1.396,10.354-3.133,13.43-5.219C163.164,130.234,164.658,127.987,164.672,125.524
			 M113.988,115.606V99.068c10.502,1.427,15.977,4.176,16.43,8.243C130.881,110.874,125.404,113.64,113.988,115.606
			 M113.988,134.733v-16.585c15.49,3.043,23.167,7.462,23.045,13.228C136.742,136.761,129.053,137.878,113.988,134.733"/>
		<path fill="#FE0000" d="M121.264,61.576c1.709-0.155,2.439-1.026,2.187-2.646h-17.044c-1.288,0.074-2.035,0.812-2.24,2.238h-3.305
			c-1.148,0.072-1.762,0.764-1.828,2.086l0.045,6.51c0.043-1.37,0.584-2.133,1.63-2.289h4.376l1.322,1.327h-5.24
			c-0.182,1.921,0.529,2.904,2.139,2.95h3.15l-0.912,7.782c-1.499,4.314-4.357,5.639-8.598,3.966
			c4.875,3.938,10.49,4.639,16.84,2.09c6.186,2.501,11.956,1.79,17.301-2.133c-3.774,1.379-6.373,0.136-7.789-3.718L121.264,61.576z
			 M109.819,65.084c-1.355-0.086-2.017-0.751-1.985-1.983h3.969C111.719,64.292,111.058,64.953,109.819,65.084"/>
		<path fill="#FE0000" d="M103.002,148.662c1.188,0.604,1.496,1.67,0.913,3.208l-3.513,8.954l-4.579-11.397
			c-0.107-0.305-0.107-0.606,0-0.916h-6.895c0.64,0.267,1.096,0.797,1.351,1.58l6.31,15.397h4.85l6.801-16.824H103.002z"/>
		<path fill="#FE0000" d="M93.334,165.248c-0.969-0.597-1.651-1.382-2.038-2.339l-6.057-14.337h-7.321
			c0.974,0.296,1.385,0.98,1.22,2.033l-5.19,12.774c-0.296,0.68-0.866,1.303-1.729,1.869h6.127
			c-0.929-0.497-1.182-1.239-0.783-2.224l1.172-2.849h5.541l0.964,1.988c0.692,1.429,0.442,2.465-0.759,3.085H93.334z
			 M79.546,157.886l1.78-4.732l1.98,4.732H79.546z"/>
		<path fill="#FE0000" d="M152.988,150.476c0.287-0.988,0.714-1.599,1.284-1.814h-7.841c0.563,0.225,0.98,0.826,1.264,1.814v13.137
			c-0.129,0.628-0.559,1.21-1.276,1.75h7.854c-0.735-0.53-1.159-1.107-1.284-1.742V150.476z"/>
		<path fill="#FE0000" d="M142.818,152.919c-0.187-2.37-1.721-3.816-4.605-4.338H127.32c0.791,0.441,1.256,1.002,1.387,1.694v12.939
			c0.015,0.845-0.415,1.558-1.279,2.119h7.916c-0.697-0.427-1.064-1.002-1.098-1.699v-5.283c2.186,4.405,3.949,6.725,5.283,6.982
			h6.033c-1.537-1.203-3.625-3.971-6.258-8.305C141.604,156.399,142.775,155.024,142.818,152.919 M134.144,151.146
			c2.026-0.11,3.083,0.726,3.167,2.494c-0.119,1.769-1.182,2.831-3.167,3.165V151.146z"/>
		<path fill="#FE0000" d="M111.092,148.572c0.971,0.296,1.379,0.98,1.219,2.033l-5.19,12.774c-0.298,0.68-0.866,1.303-1.729,1.869
			h6.128c-0.931-0.497-1.187-1.239-0.785-2.224l1.167-2.849h5.548l0.967,1.988c0.692,1.429,0.438,2.465-0.764,3.085h8.854
			c-0.969-0.597-1.649-1.382-2.033-2.339l-6.057-14.337H111.092z M112.721,157.886l1.775-4.732l1.986,4.732H112.721z"/>
		<path fill="#FE0000" d="M161.15,148.574c0.976,0.294,1.384,0.976,1.219,2.031l-5.192,12.777c-0.241,0.559-0.675,1.083-1.31,1.57
			c-0.129,0.11-0.263,0.21-0.418,0.296h6.126c-0.929-0.497-1.179-1.241-0.78-2.224l1.169-2.849h5.546l0.967,1.99
			c0.691,1.427,0.439,2.462-0.764,3.083h8.854c-0.965-0.597-1.649-1.379-2.038-2.339l-6.052-14.335H161.15z M164.558,153.153
			l1.983,4.735h-3.766L164.558,153.153z"/>
		<rect x="52.856" y="169.705" fill="#FE0000" width="124.287" height="1.365"/>
	</g>
</g>
</svg>
