<?xml version="1.0" encoding="utf-8"?>
<!-- Generator: Adobe Illustrator 16.0.0, SVG Export Plug-In . SVG Version: 6.00 Build 0)  -->
<!DOCTYPE svg PUBLIC "-//W3C//DTD SVG 1.1//EN" "http://www.w3.org/Graphics/SVG/1.1/DTD/svg11.dtd">
<svg version="1.1" xmlns="http://www.w3.org/2000/svg" xmlns:xlink="http://www.w3.org/1999/xlink" x="0px" y="0px" width="230px"
	 height="230px" viewBox="0 0 230 230" enable-background="new 0 0 230 230" xml:space="preserve">
<g id="Capa_1">
</g>
<g id="Modo_de_aislamiento">
	<rect fill="#FFFFFF" width="230" height="230"/>
	<g>
		<path fill="#D7001E" d="M93.45,139.271c-7.383-4.29-17.258-4.805-33.039-0.177c-16.862,4.275-22.433,6.86-29.996,2.154
			c-2.905-2.336-4.026-6.197-3.419-11.793c1.539-9.146,6.081-18.028,14.327-27.983c4.608-5.18,8.883-9.64,14.662-11.541
			c4.417-1.202,4.078,2.163,3.568,2.64c-0.565,0.023-1.53,0.141-2.251,0.621c-0.588,0.455-2.191,1.932-2.23,3.862
			c-0.057,2.964,3.13,2.255,4.468,0.601c1.432-1.86,3.536-5.438,1.728-8.641c-0.76-1.148-2.027-1.904-3.583-2.137
			c-5.334-0.168-10.225,2.401-14.721,5.189c-9.824,6.917-17.593,16.336-21.842,26.529c-2.452,6.15-4.584,14.942-0.85,21.92
			c2.861,4.869,8.612,7.313,15.378,6.588c4.737-0.585,10.446-2.221,14.294-3.212c3.835-0.989,23.454-8.029,30.261,3.124
			c0,0,2.049-4.064,7.447-4.291c4.446-0.496,10.89,0.951,15.649,4.105C101.685,144.623,97.187,141.453,93.45,139.271"/>
		<path fill="#D7001E" d="M61.446,102.078c-3.763-2.223-11.094,2.412-16.844,10.188c-5.258,6.982-7.41,14.983-4.748,18.591
			c3.92,4.216,10.82-2.249,13.743-5.692l0.376-0.404c1.979-2.15,3.505-4.713,4.965-7.197c0,0,1.351-2.237,1.42-2.354
			c0.854-0.168,1.891-0.443,3.063-0.798c-0.009,0.036-3.793,6.378-3.752,10.968c0.004,1.003,0.164,5.095,4.275,6.197
			c5.448,0.732,9.697-3.408,13.423-7.102c0,0,0.642-0.634,0.996-0.965c-0.083,0.355-0.188,0.823-0.188,0.823
			c-1.447,5.343,0.715,6.407,2.082,6.779c4.087,1.011,8.78-4.745,8.78-4.745c-0.063,1.772-0.394,3.252,1.601,4.373
			c1.86,0.594,3.702-0.405,5.094-1.326c5.03-3.604,9.005-9.142,12.219-13.83l-2.119,0.053c-0.026,0.027-5.057,7.342-8.393,9.008
			c0,0-0.624,0.291-0.992,0.078c-0.436-0.344-0.289-1.171-0.035-1.691l12.506-22.106l-6.169,0.161l-0.707,1.172l-0.202-0.262
			c-3.964-4.971-12.407,3.055-18.69,12.246c-2.403,3.53-5.501,7.527-8.723,10.439c0,0-4.805,4.441-6.983,1.4
			c-0.799-1.271-0.608-3.184-0.215-4.438c2.264-6.729,6.312-12.861,10.996-16.623c1.318-1.037,2.793-1.367,3.531-0.968
			c0.709,0.386,0.838,1.358,0.416,2.03c-1.112-0.016-1.999,0.338-2.706,1.078c-1.392,1.467-1.852,2.872-1.355,4.164
			c2.281,2.938,6.525-3.131,6.219-6.73c-0.111-1.301-0.864-2.506-1.957-3.091c-1.64-0.874-4.098-0.563-5.663,0.201
			c-2.115,0.832-5.407,3.598-7.322,5.741c-2.393,2.669-6.567,5.691-7.909,5.415C61.882,111.723,65.282,104.619,61.446,102.078
			 M91.445,111.684c1.167-1.614,4.542-5.967,5.37-6.703c2.806-2.484,3.973-1.457,4.089-0.721c-2.55,4.654-5.554,9.984-8.399,14.773
			l-0.889,1.373c-1.254,1.955-2.541,3.631-4.663,4.831c-0.293,0.092-0.801,0.134-1.145-0.088c-0.412-0.236-0.584-0.657-0.554-1.121
			C85.355,122.564,86.797,118.035,91.445,111.684 M57.973,115.33l-0.068,0.192l-2.581,4.262c-1.563,2.106-3.52,4.763-6.009,6.079
			c-0.745,0.242-1.782,0.434-2.325-0.195c-1.147-1.234-0.611-3.025-0.188-4.463l0.156-0.539c1.254-3.524,3.303-6.641,5.289-9.549
			l0.105-0.027l0.013,0.027c1.375,2.361,3.846,3.4,5.687,3.873l0.024,0.056C58.075,115.096,58.042,115.178,57.973,115.33
			 M60.378,110.328l-1.119,2.656c-0.167,0.137-0.436,0.075-0.76,0l-0.517-0.061c-1.688-0.451-2.973-1.475-3.402-2.732
			c-0.591-2.447,1.546-4.426,2.496-5.156c0.919-0.647,2.357-0.996,3.211-0.381c0.527,0.574,0.749,1.3,0.777,2.119
			C61.087,107.885,60.761,109.141,60.378,110.328"/>
		<polygon fill="#D7001E" points="119.055,100.639 113.309,100.801 110.139,106.234 115.898,106.091 		"/>
		<path fill="#D7001E" d="M189.848,137.262c-0.619,0.414-1.532,0.096-1.217-0.858c0.771-2.397,3.915-7.409,3.915-7.409l8.707-15.772
			L195,113.381c-0.279,0.537-0.875,1.608-0.875,1.608c-0.311-0.459-1.204-1.441-1.572-1.658c-1.545-0.879-3.769-0.376-5.299,0.501
			c-6.616,3.932-11.329,11.497-15.032,17.398c0,0-3.901,6.545-6.151,7.088c-1.768,0.176-1.637-2.099-1.576-2.631
			c0.587-3.844,2.067-7.523,3.573-10.869c3.2-2.228,6.823-5.154,10.103-8.332c6.757-6.504,12.449-13.769,13.762-15.988
			c-0.287,0.047-1.143,0.213-2.167,0.26c-5.497,7.635-16.449,18.563-19.839,20.246c1.442-3.604,10.974-20.807,19.252-29.146
			l1.305-1.278c2.011-1.979,4.095-4.026,5.765-4.378c0.176-0.035,0.402-0.025,0.6,0.373c0.127,1.503-0.433,2.617-1.076,3.918
			l-0.885,1.869c0,0,1.326-0.287,2.189-0.579c0.961-1.864,2.035-3.94,1.559-6.379c-0.162-0.767-0.767-1.347-1.555-1.478
			c-2.535-0.387-5.254,1.482-7.438,2.981l-0.092,0.072c-11.19,8.847-20.502,21.449-28.49,38.501
			c-0.603,0.463-2.942,1.046-3.35,0.803c0.791-1.648,1.78-3.885,2.235-6.302c0.075-0.671,0.136-1.368,0.123-2.056
			c-0.048-1.463-0.442-2.854-1.834-3.768c-1.651-0.727-3.629-0.314-4.96,0.303c-5.963,2.563-10.321,8.58-13.426,13.537
			c-1.677,3.127-3.325,6.494-3.717,10.295c-0.254,2.989,0.486,4.885,2.285,5.8c1.83,0.83,4.092-0.149,4.982-0.612
			c6.033-3.244,10.12-9.521,13.342-15.258c0.131-0.021,1.963-0.1,3.34-0.492l0.059,0.014c-0.077,0.254-0.733,2.34-0.733,2.34
			c-1.975,6.025-2.85,10.113-0.771,12.469c2.964,3.331,7.639-0.312,11.38-5.07c-0.685,5.6,2.362,6.402,4.652,5.916
			c2.623-0.771,5.485-3.537,6.814-4.959c-0.396,1.631-0.191,4.518,2.213,4.748c1.655,0.258,2.856-0.574,4.277-1.355
			c5.044-2.782,10.929-11.906,12.456-14.387l-2.084,0.051C196.16,130.74,193.416,135.127,189.848,137.262 M143.896,137.817
			c-0.322-0.448-0.451-0.979-0.479-1.523c-0.14-3.35,3.46-9.399,6.04-12.812c1.182,2.453,3.734,3.762,5.284,4.359
			C152.949,131.906,146.693,140.748,143.896,137.817 M155.751,126.031c-0.179,0.123-3.382-0.822-4.074-3.617
			c-0.584-2.409,1.103-4.357,2.778-5.357c0.703-0.564,1.791-0.781,2.605-0.529c0.755,0.471,0.98,1.324,1,2.224
			c0.017,0.567-0.046,1.153-0.094,1.69l-0.018,0.119C157.468,122.466,156.702,124.355,155.751,126.031 M181.552,135.75l-0.587,0.523
			c-0.844,0.762-1.716,1.568-2.785,1.2c-0.304-0.092-0.517-0.455-0.571-0.757c-0.105-2.1,0.834-4.072,1.745-5.992l0.223-0.49
			c2.658-4.496,5.72-9.775,10.339-13.5c0.769-0.564,1.622-1.049,2.538-0.718c0.214,0.18,0.471,0.507,0.481,0.828
			c0,0.104-0.072,0.38-0.141,0.468c-1.259,2.063-2.46,4.231-3.612,6.312C186.901,127.739,184.546,131.983,181.552,135.75"/>
		<path fill="#D7001E" d="M180.982,90.968l-0.131-0.073c-2.89-1.582-6.134-3.08-9.126-4.541c-6.791-3.322-12.221-1.957-14.97-0.928
			c-1.086,0.411-2.08,0.758-2.08,0.758c-2.114-2.109-5.49-1.797-7.961-1.158c-8.892,2.691-17.059,8.91-25.687,19.545
			c-6.348,8.343-10.225,15.475-12.21,22.492c-1.552,4.713-1.874,11.617,2.312,15.582c3.563,3.384,8.134,2.502,11.358,1.184
			c6.938-3.51,13.068-10.816,16.009-19.121c0.679-2.449,1.447-5.928,0.063-8.511c-0.615-1.226-2.057-1.975-3.559-1.857
			c-4.877,0.567-9.56,4.534-11.92,10.114c-1.232,2.872-1.897,5.223-2.27,8.953c1.489-1.698,4.507-4.541,7.979-6.136
			c0,0,0.386-3.56,2.734-6.825c0.9-1.338,2.682-3.496,4.781-3.002c1.823,0.539,1.313,5.368-0.979,10.07
			c-1.69,3.473-4.316,6.945-7.022,9.385c-2.389,2.053-5.935,4.541-9.142,2.765c-2.007-1.066-3.095-3.396-2.958-6.449
			c0.72-8.649,4.639-16.104,10.271-24.626c5.855-7.942,12.321-16.08,21.211-20.576c1.802-0.928,3.507-1.177,4.984-0.695
			c0,0-8.333,4.678-12.142,12.998c-0.963,2.102-2.314,4.969-0.813,7.43c0.794,1.275,2.122,1.338,3.183,1.253
			c4.91-1.235,7.979-5.718,10.479-9.815c1.427-3.119,2.692-6.187,2.6-9.567c-0.009-0.415-0.048-0.941-0.096-1.36
			c2.329-1.252,7.219,0.727,7.219,0.727c3.466,0.997,9.772,5.373,13.086,7.021C178.408,93.349,180.391,91.523,180.982,90.968
			 M154.053,90.014c-0.669,10.238-8.804,16.457-10.849,16.984c-1.237,0.273-3.377-0.202-1.585-4.527
			c2.64-5.855,7.265-10.886,12.307-13.521C154.073,89.361,154.079,89.633,154.053,90.014"/>
		<path fill="#D7001E" d="M203.314,90.01c-4.152,2.393-7.846,4.027-13.047,3.866c-0.613,0.708-2.801,3.354-4.045,5.468
			c7.527,1.021,14.539-3.192,18.843-7.152c4.812-4.203,7.185-9.42,7.185-9.42S208.678,86.914,203.314,90.01"/>
		<path fill="#D7001E" d="M206.719,134.023c-0.756,0.749-1.653,1.13-2.703,1.152c-1.104,0.018-2.027-0.34-2.792-1.076
			c-0.769-0.732-1.149-1.648-1.175-2.74c-0.018-1.14,0.367-2.086,1.168-2.848c0.736-0.727,1.625-1.094,2.646-1.112
			c1.071-0.02,1.996,0.34,2.77,1.087c0.775,0.742,1.169,1.651,1.195,2.725C207.848,132.318,207.475,133.254,206.719,134.023
			 M201.609,129.076c-0.609,0.637-0.9,1.401-0.883,2.269c0.02,0.901,0.346,1.659,0.988,2.276c0.629,0.617,1.402,0.915,2.282,0.897
			c0.885-0.013,1.632-0.343,2.241-0.987c0.611-0.645,0.911-1.416,0.898-2.31c-0.014-0.86-0.338-1.608-0.968-2.228
			c-0.649-0.645-1.414-0.946-2.298-0.934C202.982,128.08,202.229,128.416,201.609,129.076 M202.271,133.477l-0.077-4.313
			c0.263,0,0.662,0,1.195-0.02c0.534-0.004,0.832-0.009,0.889-0.009c0.342,0.024,0.622,0.094,0.85,0.212
			c0.393,0.201,0.591,0.543,0.602,1.029c0,0.355-0.09,0.615-0.295,0.779c-0.197,0.17-0.44,0.267-0.733,0.307
			c0.263,0.048,0.475,0.131,0.619,0.236c0.249,0.192,0.377,0.519,0.388,0.949l0.011,0.388c-0.004,0.051,0.005,0.081,0.009,0.132
			c0.009,0.037,0.018,0.078,0.031,0.125l0.041,0.115l-1.079,0.022c-0.034-0.138-0.062-0.331-0.079-0.593
			c-0.008-0.266-0.046-0.436-0.083-0.525c-0.057-0.153-0.162-0.254-0.319-0.316c-0.084-0.029-0.213-0.053-0.385-0.059l-0.255-0.006
			l-0.228,0.002l0.027,1.525L202.271,133.477z M204.26,129.975c-0.153-0.053-0.377-0.077-0.652-0.072l-0.275,0.006l0.026,1.255
			l0.433-0.011c0.27-0.005,0.469-0.06,0.613-0.174c0.148-0.107,0.219-0.279,0.215-0.51
			C204.61,130.224,204.492,130.064,204.26,129.975"/>
	</g>
</g>
</svg>
