<?xml version="1.0" encoding="utf-8"?>
<!-- Generator: Adobe Illustrator 16.0.0, SVG Export Plug-In . SVG Version: 6.00 Build 0)  -->
<!DOCTYPE svg PUBLIC "-//W3C//DTD SVG 1.1//EN" "http://www.w3.org/Graphics/SVG/1.1/DTD/svg11.dtd">
<svg version="1.1" id="Capa_1" xmlns="http://www.w3.org/2000/svg" xmlns:xlink="http://www.w3.org/1999/xlink" x="0px" y="0px"
	 width="25.125px" height="25.125px" viewBox="0 0 25.125 25.125" enable-background="new 0 0 25.125 25.125" xml:space="preserve">
<path d="M25.125,12.563c0,6.938-5.625,12.563-12.563,12.563S0,19.5,0,12.563C0,5.625,5.625,0,12.563,0S25.125,5.625,25.125,12.563z
	 M9.905,18.5v-8h-3v8H9.905L9.905,18.5z M7.987,8.5c1.002,0,1.626-0.442,1.626-1.271C9.595,6.38,8.989,5.846,8.007,5.846
	c-0.983,0-1.626,0.479-1.626,1.327c0,0.83,0.624,1.327,1.588,1.327H7.987L7.987,8.5z M10.905,18.5h3v-4.558
	c0-0.258,0.01-0.516,0.086-0.701c0.207-0.517,0.673-1.051,1.466-1.051c1.041,0,1.448,0.793,1.448,1.955V18.5h3v-4.687
	c0-2.656-1.479-3.831-3.367-3.831c-1.553,0-2.29,0.518-2.669,1.518h0.036v-1h-3V18.5L10.905,18.5z"/>
</svg>
