<?xml version="1.0" encoding="utf-8"?>
<!-- Generator: Adobe Illustrator 16.0.0, SVG Export Plug-In . SVG Version: 6.00 Build 0)  -->
<!DOCTYPE svg PUBLIC "-//W3C//DTD SVG 1.1//EN" "http://www.w3.org/Graphics/SVG/1.1/DTD/svg11.dtd">
<svg version="1.1" id="Capa_1" xmlns="http://www.w3.org/2000/svg" xmlns:xlink="http://www.w3.org/1999/xlink" x="0px" y="0px"
	 width="215.486px" height="80.053px" viewBox="0 0 215.486 80.053" enable-background="new 0 0 215.486 80.053"
	 xml:space="preserve">
<g>
	<polygon fill="#FF0000" points="215.486,58.222 198.236,58.222 198.236,40.966 193.658,40.966 193.658,58.222 176.399,58.222 
		176.399,62.798 193.658,62.798 193.658,80.053 198.236,80.053 198.236,62.798 215.486,62.798 	"/>
	<polygon fill="#9D9D9D" points="25.623,11.312 14.313,11.312 14.313,0 11.312,0 11.312,11.312 0,11.312 0,14.312 11.312,14.312 
		11.312,25.624 14.313,25.624 14.313,14.312 25.623,14.312 	"/>
	<g>
		<g>
			<g>
				<path fill="#666666" d="M75.82,58.56h0.917l1.247,3.268h0.018l1.183-3.268h0.857l-1.988,5.088
					c-0.282,0.725-0.557,1.22-1.431,1.22c-0.238,0-0.485-0.027-0.706-0.116l0.097-0.725c0.15,0.063,0.317,0.098,0.477,0.098
					c0.504,0,0.654-0.274,0.813-0.689l0.255-0.662L75.82,58.56z"/>
				<path fill="#666666" d="M82.809,58.453c1.246,0,2.227,0.981,2.227,2.199c0,1.219-0.98,2.201-2.227,2.201
					c-1.245,0-2.226-0.981-2.226-2.201C80.583,59.435,81.563,58.453,82.809,58.453z M82.809,62.11c0.849,0,1.378-0.609,1.378-1.458
					c0-0.847-0.529-1.457-1.378-1.457c-0.848,0-1.378,0.61-1.378,1.457C81.431,61.501,81.961,62.11,82.809,62.11z"/>
				<path fill="#666666" d="M89.791,62.748h-0.796v-0.646h-0.018c-0.203,0.442-0.732,0.751-1.378,0.751
					c-0.813,0-1.521-0.486-1.521-1.599V58.56h0.796v2.472c0,0.787,0.451,1.079,0.955,1.079c0.662,0,1.165-0.424,1.165-1.396V58.56
					h0.796V62.748z"/>
				<path fill="#666666" d="M91.038,58.56h0.795v0.646h0.018c0.204-0.442,0.734-0.752,1.255-0.752c0.123,0,0.247,0.019,0.353,0.053
					l-0.034,0.857c-0.133-0.036-0.266-0.063-0.39-0.063c-0.777,0-1.201,0.426-1.201,1.343v2.104h-0.795V58.56z"/>
				<path fill="#666666" d="M96.854,56.067h0.795v3.093h0.019c0.282-0.434,0.856-0.707,1.457-0.707c1.29,0,2.129,0.946,2.129,2.199
					c0,1.238-0.83,2.201-2.129,2.201c-0.565,0-1.148-0.257-1.457-0.707h-0.019v0.602h-0.795V56.067z M100.405,60.652
					c0-0.847-0.53-1.457-1.379-1.457c-0.848,0-1.378,0.61-1.378,1.457c0,0.849,0.53,1.458,1.378,1.458
					C99.875,62.11,100.405,61.501,100.405,60.652z"/>
				<path fill="#666666" d="M102.298,58.56h0.795v0.646h0.018c0.203-0.442,0.734-0.752,1.255-0.752c0.124,0,0.247,0.019,0.353,0.053
					l-0.034,0.857c-0.133-0.036-0.266-0.063-0.389-0.063c-0.778,0-1.202,0.426-1.202,1.343v2.104h-0.795V58.56z"/>
				<path fill="#666666" d="M105.631,59.071c0.441-0.417,1.077-0.618,1.661-0.618c1.235,0,1.748,0.671,1.748,1.396v2.139
					c0,0.292,0.009,0.538,0.035,0.76h-0.707c-0.017-0.212-0.026-0.426-0.026-0.637h-0.018c-0.353,0.539-0.83,0.743-1.467,0.743
					c-0.776,0-1.448-0.442-1.448-1.255c0-1.078,1.034-1.449,2.306-1.449h0.583v-0.177c0-0.432-0.318-0.882-0.998-0.882
					c-0.609,0-0.901,0.255-1.192,0.477L105.631,59.071z M107.874,60.733c-0.751,0-1.67,0.133-1.67,0.803
					c0,0.477,0.354,0.68,0.901,0.68c0.883,0,1.192-0.653,1.192-1.219v-0.264H107.874z"/>
				<path fill="#666666" d="M110.244,58.56h0.795v0.646h0.018c0.203-0.442,0.733-0.752,1.377-0.752c0.813,0,1.521,0.485,1.521,1.599
					v2.695h-0.796v-2.474c0-0.786-0.45-1.078-0.954-1.078c-0.662,0-1.165,0.424-1.165,1.396v2.156h-0.795V58.56z"/>
				<path fill="#666666" d="M119.397,62.748h-0.795v-0.602h-0.018c-0.309,0.45-0.893,0.707-1.458,0.707
					c-1.299,0-2.129-0.963-2.129-2.201c0-1.253,0.84-2.199,2.129-2.199c0.602,0,1.176,0.273,1.458,0.707h0.018v-3.093h0.795V62.748z
					 M118.603,60.652c0-0.847-0.529-1.457-1.379-1.457c-0.847,0-1.378,0.61-1.378,1.457c0,0.849,0.531,1.458,1.378,1.458
					C118.073,62.11,118.603,61.501,118.603,60.652z"/>
				<path fill="#666666" d="M121.193,63.913h-0.726l0.61-2.173h0.857L121.193,63.913z"/>
				<path fill="#666666" d="M127.67,58.453c1.245,0,2.227,0.981,2.227,2.199c0,1.219-0.981,2.201-2.227,2.201
					s-2.227-0.981-2.227-2.201C125.443,59.435,126.425,58.453,127.67,58.453z M127.67,62.11c0.849,0,1.379-0.609,1.379-1.458
					c0-0.847-0.53-1.457-1.379-1.457c-0.847,0-1.377,0.61-1.377,1.457C126.293,61.501,126.823,62.11,127.67,62.11z"/>
				<path fill="#666666" d="M134.652,62.748h-0.796v-0.646h-0.017c-0.203,0.442-0.732,0.751-1.377,0.751
					c-0.813,0-1.521-0.486-1.521-1.599V58.56h0.796v2.472c0,0.787,0.45,1.079,0.953,1.079c0.662,0,1.165-0.424,1.165-1.396V58.56
					h0.796V62.748z"/>
				<path fill="#666666" d="M135.899,58.56h0.796v0.646h0.018c0.203-0.442,0.732-0.752,1.255-0.752c0.124,0,0.247,0.019,0.354,0.053
					l-0.036,0.857c-0.133-0.036-0.265-0.063-0.389-0.063c-0.776,0-1.201,0.426-1.201,1.343v2.104h-0.796V58.56z"/>
				<path fill="#666666" d="M141.715,58.56h0.796v0.601h0.019c0.308-0.45,0.891-0.707,1.456-0.707c1.299,0,2.129,0.963,2.129,2.199
					c0,1.254-0.838,2.201-2.129,2.201c-0.6,0-1.174-0.274-1.456-0.707h-0.019v3.092h-0.796V58.56z M142.511,60.652
					c0,0.849,0.53,1.458,1.377,1.458c0.85,0,1.38-0.609,1.38-1.458c0-0.847-0.53-1.457-1.38-1.457
					C143.041,59.196,142.511,59.806,142.511,60.652z"/>
				<path fill="#666666" d="M147.178,59.071c0.441-0.417,1.077-0.618,1.66-0.618c1.237,0,1.75,0.671,1.75,1.396v2.139
					c0,0.292,0.009,0.538,0.034,0.76h-0.706c-0.018-0.212-0.025-0.426-0.025-0.637h-0.019c-0.352,0.539-0.831,0.743-1.467,0.743
					c-0.776,0-1.449-0.442-1.449-1.255c0-1.078,1.034-1.449,2.307-1.449h0.583v-0.177c0-0.432-0.318-0.882-0.999-0.882
					c-0.609,0-0.9,0.255-1.191,0.477L147.178,59.071z M149.421,60.733c-0.75,0-1.67,0.133-1.67,0.803c0,0.477,0.354,0.68,0.901,0.68
					c0.885,0,1.193-0.653,1.193-1.219v-0.264H149.421z"/>
				<path fill="#666666" d="M154.018,59.61c-0.186-0.229-0.461-0.415-0.857-0.415c-0.372,0-0.698,0.168-0.698,0.468
					c0,0.502,0.716,0.574,1.069,0.654c0.689,0.168,1.22,0.434,1.22,1.219c0,0.946-0.867,1.317-1.696,1.317
					c-0.689,0-1.202-0.177-1.617-0.743l0.601-0.495c0.257,0.256,0.557,0.495,1.017,0.495c0.406,0,0.847-0.167,0.847-0.53
					c0-0.475-0.662-0.565-1.007-0.644c-0.679-0.169-1.28-0.391-1.28-1.194c0-0.873,0.805-1.29,1.591-1.29
					c0.555,0,1.13,0.194,1.431,0.689L154.018,59.61z"/>
				<path fill="#666666" d="M157.985,59.61c-0.186-0.229-0.46-0.415-0.856-0.415c-0.372,0-0.698,0.168-0.698,0.468
					c0,0.502,0.715,0.574,1.069,0.654c0.689,0.168,1.219,0.434,1.219,1.219c0,0.946-0.866,1.317-1.697,1.317
					c-0.688,0-1.2-0.177-1.615-0.743l0.601-0.495c0.256,0.256,0.556,0.495,1.015,0.495c0.408,0,0.849-0.167,0.849-0.53
					c0-0.475-0.662-0.565-1.007-0.644c-0.68-0.169-1.28-0.391-1.28-1.194c0-0.873,0.804-1.29,1.589-1.29
					c0.557,0,1.131,0.194,1.432,0.689L157.985,59.61z"/>
				<path fill="#666666" d="M160.188,56.475c0.317,0,0.582,0.266,0.582,0.583c0,0.318-0.265,0.583-0.582,0.583
					c-0.319,0-0.584-0.265-0.584-0.583C159.604,56.74,159.868,56.475,160.188,56.475z M159.79,58.56h0.794v4.188h-0.794V58.56z"/>
				<path fill="#666666" d="M163.915,58.453c1.247,0,2.227,0.981,2.227,2.199c0,1.219-0.979,2.201-2.227,2.201
					c-1.245,0-2.226-0.981-2.226-2.201C161.689,59.435,162.67,58.453,163.915,58.453z M163.915,62.11
					c0.849,0,1.379-0.609,1.379-1.458c0-0.847-0.53-1.457-1.379-1.457c-0.848,0-1.377,0.61-1.377,1.457
					C162.538,61.501,163.067,62.11,163.915,62.11z"/>
				<path fill="#666666" d="M167.187,58.56h0.794v0.646h0.019c0.204-0.442,0.733-0.752,1.378-0.752c0.813,0,1.52,0.485,1.52,1.599
					v2.695h-0.795v-2.474c0-0.786-0.45-1.078-0.954-1.078c-0.662,0-1.167,0.424-1.167,1.396v2.156h-0.794V58.56z"/>
				<path fill="#666666" d="M172.773,61.634c0.316,0,0.582,0.265,0.582,0.582c0,0.319-0.266,0.583-0.582,0.583
					c-0.319,0-0.584-0.264-0.584-0.583C172.189,61.899,172.454,61.634,172.773,61.634z M173.179,60.945h-0.848v-4.452h0.848V60.945z
					"/>
			</g>
		</g>
		<g>
			<g>
				<g>
					<path d="M159.365,49.606h-4.433V38.097c0-4.214-3.426-7.642-7.642-7.642c-4.212,0-7.643,3.428-7.643,7.642v11.509h-4.428
						V38.097c0-6.658,5.412-12.074,12.07-12.074c6.656,0,12.074,5.417,12.074,12.074V49.606L159.365,49.606z"/>
				</g>
				<g>
					<g>
						<path d="M97.94,49.606h-4.432V37.591c0-6.657,5.416-12.071,12.07-12.071h2.217v4.43h-2.217c-4.213,0-7.639,3.427-7.639,7.641
							V49.606L97.94,49.606z"/>
					</g>
				</g>
				<path d="M181.423,15.286v12.968c-2.08-1.708-4.743-2.733-7.638-2.733c-6.657,0-12.072,5.414-12.072,12.071
					c0,6.658,5.415,12.074,12.072,12.074s12.069-5.416,12.069-12.074V15.286H181.423z M173.785,45.234
					c-4.213,0-7.64-3.429-7.64-7.643c0-4.213,3.427-7.641,7.64-7.641s7.638,3.427,7.638,7.641
					C181.423,41.805,177.998,45.234,173.785,45.234z"/>
				<path d="M79.771,25.521c-2.894,0-5.556,1.025-7.641,2.733V15.286h-4.432v22.306c0,6.658,5.416,12.074,12.072,12.074
					c6.657,0,12.072-5.416,12.072-12.074C91.844,30.934,86.429,25.521,79.771,25.521z M79.771,45.234
					c-4.214,0-7.641-3.429-7.641-7.643c0-4.213,3.427-7.641,7.641-7.641c4.215,0,7.643,3.427,7.643,7.641
					C87.414,41.805,83.986,45.234,79.771,45.234z"/>
				<g>
					<path d="M132.872,49.665h-12.233c-6.657,0-12.076-5.416-12.076-12.074c0-6.657,5.419-12.071,12.076-12.071
						c6.638,0,12.046,5.388,12.071,12.025l0.162,4.046V49.665L132.872,49.665z M120.639,29.951c-4.213,0-7.643,3.427-7.643,7.641
						c0,4.214,3.43,7.643,7.643,7.643h7.802v-3.596l-0.161-4.046C128.279,33.378,124.852,29.951,120.639,29.951L120.639,29.951z"/>
				</g>
				<g>
					<path d="M54.438,49.716c-3.092,0-6.183-1.178-8.537-3.53c-4.707-4.708-4.707-12.366,0-17.074
						c4.707-4.707,12.367-4.708,17.075-0.001l1.565,1.568l-3.134,3.133l-1.567-1.568c-2.979-2.977-7.824-2.977-10.806,0.002
						c-2.98,2.978-2.98,7.826,0,10.805c2.981,2.982,7.827,2.98,10.806,0l1.567-1.567l3.134,3.133l-1.565,1.569
						C60.622,48.539,57.531,49.716,54.438,49.716L54.438,49.716z"/>
				</g>
				<g>
					<path d="M30.674,49.716c-3.091,0-6.184-1.178-8.537-3.53c-4.708-4.708-4.708-12.366,0-17.074
						c4.71-4.707,12.366-4.708,17.074-0.001l1.566,1.568l-3.134,3.133l-1.567-1.568c-2.979-2.977-7.825-2.977-10.807,0.002
						c-2.977,2.978-2.977,7.826,0,10.805c2.981,2.982,7.828,2.98,10.807,0l1.567-1.567l3.134,3.133l-1.566,1.569
						C36.856,48.539,33.768,49.716,30.674,49.716L30.674,49.716z"/>
				</g>
			</g>
			<g>
				<path d="M186.521,45.509c1.153,0,2.12,0.904,2.12,2.091c0,1.212-0.967,2.117-2.12,2.117c-1.154,0-2.122-0.904-2.122-2.091
					C184.399,46.413,185.367,45.509,186.521,45.509z M186.521,49.412c0.989,0,1.781-0.781,1.781-1.812
					c0-1.01-0.792-1.785-1.781-1.785c-0.991,0-1.781,0.775-1.781,1.811C184.74,48.63,185.53,49.412,186.521,49.412z M185.734,46.407
					h0.895c0.581,0,0.859,0.217,0.859,0.702c0,0.437-0.285,0.624-0.645,0.662l0.7,1.075h-0.367l-0.668-1.047h-0.435v1.047h-0.34
					V46.407z M186.074,47.494h0.419c0.339,0,0.656-0.017,0.656-0.4c0-0.341-0.29-0.38-0.552-0.38h-0.523V47.494z"/>
			</g>
		</g>
	</g>
</g>
</svg>
