<?xml version="1.0" encoding="utf-8"?>
<!-- Generator: Adobe Illustrator 16.0.0, SVG Export Plug-In . SVG Version: 6.00 Build 0)  -->
<!DOCTYPE svg PUBLIC "-//W3C//DTD SVG 1.1//EN" "http://www.w3.org/Graphics/SVG/1.1/DTD/svg11.dtd">
<svg version="1.1" id="Capa_1" xmlns="http://www.w3.org/2000/svg" xmlns:xlink="http://www.w3.org/1999/xlink" x="0px" y="0px"
	 width="1970.656px" height="1969.791px" viewBox="0 0 1970.656 1969.791" enable-background="new 0 0 1970.656 1969.791"
	 xml:space="preserve">
<path opacity="0.4" fill-rule="evenodd" clip-rule="evenodd" d="M1970.651,985.068C1972.383,450.834,1539.007,0.165,985.373,0
	C439.582-0.163,4.91,441,0.042,975.767c-4.971,546.059,437.729,994.253,986.107,994.024
	C1528.59,1969.564,1971.542,1528.381,1970.651,985.068z M675.638,944.229c0.359-81.598,6.623-160.525,23.891-238.277
	c16.804-75.662,42.924-147.718,85.432-213.081c37.448-57.582,84.459-105.469,144.424-139.795
	c41.413-23.707,85.674-38.313,133.742-39.363c11.604-0.253,23.304,0.701,34.858,1.999c22.67,2.547,38.618,15.196,49.293,34.861
	c10.2,18.793,14.116,39.368,16.414,60.334c4.278,39.023,1.129,77.87-3.105,116.662c-2.094,19.187-4.075,38.423-7.255,57.445
	c-3.265,19.529-10.289,37.861-21.598,54.37c-14.714,21.479-35.408,35.136-59.277,43.924c-18.092,6.661-36.789,11.673-55.192,17.493
	c-13.96,4.415-28.065,8.451-41.786,13.521c-41.258,15.245-69.302,43.853-84.17,85.223c-11.088,30.852-18.162,62.676-21.626,95.248
	c-4.275,40.204-2.657,80.591-1.983,120.86c0.321,19.157,4.758,38.289,7.864,57.346c4.499,27.604,9.196,55.184,14.358,82.67
	c3.449,18.366,8.741,36.248,17.554,52.912c10.361,19.594,25.452,33.734,46.158,42.223c22.429,9.194,45.991,13.195,69.663,17.112
	c12.471,2.063,24.963,4.254,37.22,7.299c36.011,8.945,59.806,32.281,74.553,65.439c17.665,39.719,29.6,81.285,38.58,123.732
	c6.287,29.716,11.364,59.662,9.852,90.143c-0.655,13.191-3.055,26.424-5.983,39.337c-2.873,12.67-10.298,22.963-20.861,30.834
	c-25.028,18.649-53.652,25.99-84.313,26.579c-4.153,0.08-8.947-3.547-12.402-2.378c-9.381,3.174-19.216-3.243-28.17,2.167
	c-0.496,0.3-1.339,0.292-1.933,0.121c-17.852-5.113-36.076-9.224-53.452-15.633c-33.874-12.495-63.039-33.136-90.032-56.672
	c-48.291-42.109-84.488-93.039-108.487-152.491c-24.319-60.246-46.407-121.297-64.086-183.849
	c-13.699-48.473-23.138-97.815-29.184-147.845C678.47,1044.011,676.482,993.108,675.638,944.229z"/>
</svg>
