<?xml version="1.0" encoding="utf-8"?>
<!-- Generator: Adobe Illustrator 16.0.0, SVG Export Plug-In . SVG Version: 6.00 Build 0)  -->
<!DOCTYPE svg PUBLIC "-//W3C//DTD SVG 1.1//EN" "http://www.w3.org/Graphics/SVG/1.1/DTD/svg11.dtd">
<svg version="1.1" id="Capa_1" xmlns="http://www.w3.org/2000/svg" xmlns:xlink="http://www.w3.org/1999/xlink" x="0px" y="0px"
	 width="1970.656px" height="1969.791px" viewBox="0 0 1970.656 1969.791" enable-background="new 0 0 1970.656 1969.791"
	 xml:space="preserve">
<g opacity="0.4">
	<path fill-rule="evenodd" clip-rule="evenodd" d="M1922.459,992.067c-5.313,48.418-11.58,103.271-17.08,158.211
		c-0.797,7.916,0.094,17.286,3.68,24.166c45.668,87.599,65.678,180.888,60.91,279.151c-5.865,121.182-47.768,229.229-125.85,322.027
		c-90.588,107.646-206.516,171.426-346.086,189.826c-106.998,14.111-210.109-1.461-307.164-49.738
		c-18.992-9.451-36.393-11.676-57.35-8.654c-286.996,41.42-543.177-28.867-762.869-219.1
		c-174.475-151.084-277.002-343.529-310.498-572.025c-14.463-98.709-11.859-197.411,4.928-295.808
		c1.381-8.089-0.039-18.143-3.799-25.388C15.938,707.496-3.97,614.644,0.651,516.838c5.766-121.68,47.814-230.098,126.322-323.195
		C217.354,86.474,332.897,22.921,471.956,4.42C579.425-9.871,682.915,5.828,780.401,54.306c18.502,9.204,35.488,11.528,56.068,8.54
		c286.969-41.665,543.205,28.449,763.021,218.528c174.588,150.966,277.281,343.33,310.717,571.833
		C1916.577,896.766,1918.09,941.04,1922.459,992.067z M1010.778,1586.107c25.813-1.248,51.672-1.967,77.451-3.838
		c71.283-5.18,140.473-19.824,205.813-49.441c83.568-37.873,147.943-95.455,182.92-182.283
		c20.248-50.271,26.318-102.807,22.268-156.338c-6.223-82.246-37.82-152.479-101.797-206.622
		c-48.717-41.226-105.264-67.649-166.346-82.837c-83.516-20.779-168.105-37.209-251.793-57.311
		c-44.533-10.698-89.611-21.622-131.887-38.763c-88.535-35.906-78.906-113.677-45.355-159.438
		c20.334-27.74,49.99-42.369,82.305-51.952c37.746-11.196,76.543-12.804,115.391-10.672c56.885,3.128,112.377,13.727,158.23,50.119
		c26.025,20.659,49.801,44.666,72.113,69.403c45.443,50.403,101.266,64.528,161.664,36.226
		c38.078-17.844,60.271-47.509,60.006-91.617c-0.172-29.551-8.859-56.254-24.531-80.792c-28.602-44.771-68.4-77.989-114.633-102.295
		c-193.143-101.558-391.922-112.017-594.008-29.91c-78.015,31.703-139.058,85.069-174.638,163.431
		c-28.57,62.909-33.072,128.998-22.619,196.568c10.811,69.875,44.373,126.255,100.568,169.261
		c47.222,36.133,100.74,59.429,157.679,74.092c111.445,28.701,223.422,55.352,335.002,83.528
		c17.578,4.436,34.996,10.938,51.221,19.032c57.695,28.788,78.904,91.869,50.543,149.771c-23.23,47.415-64.41,72.59-113.053,87.34
		c-45.092,13.68-91.352,14.781-137.83,10.545c-67.039-6.109-126.992-28.543-173.531-79.265
		c-18.674-20.347-35.848-42.076-53.473-63.359c-22.791-27.533-47.336-52.144-84.484-59.595
		c-83.72-16.774-149.39,41.651-139.496,125.306c4.51,38.13,20.893,71.792,44.248,101.942
		c45.695,58.957,106.492,96.889,175.083,123.193C822.903,1573.701,915.768,1586,1010.778,1586.107z"/>
</g>
</svg>
