<?xml version="1.0" encoding="utf-8"?>
<!-- Generator: Adobe Illustrator 16.0.0, SVG Export Plug-In . SVG Version: 6.00 Build 0)  -->
<!DOCTYPE svg PUBLIC "-//W3C//DTD SVG 1.1//EN" "http://www.w3.org/Graphics/SVG/1.1/DTD/svg11.dtd">
<svg version="1.1" id="Capa_1" xmlns="http://www.w3.org/2000/svg" xmlns:xlink="http://www.w3.org/1999/xlink" x="0px" y="0px"
	 width="25.125px" height="25.125px" viewBox="0 0 25.125 25.125" enable-background="new 0 0 25.125 25.125" xml:space="preserve">
<path d="M25.125,12.563c0,6.938-5.625,12.563-12.563,12.563S0,19.5,0,12.563C0,5.625,5.625,0,12.563,0S25.125,5.625,25.125,12.563z
	 M19.668,12.143c1.033-0.085,1.732-0.554,2.002-1.19c-0.373,0.229-1.528,0.478-2.166,0.24c-0.031-0.15-0.066-0.292-0.1-0.422
	c-0.488-1.785-2.152-3.224-3.896-3.05c0.141-0.057,0.283-0.109,0.426-0.157c0.192-0.07,1.319-0.253,1.142-0.65
	c-0.15-0.35-1.526,0.263-1.785,0.344c0.342-0.128,0.909-0.351,0.969-0.743c-0.524,0.072-1.039,0.32-1.437,0.68
	c0.144-0.155,0.253-0.342,0.275-0.545c-1.397,0.893-2.216,2.694-2.876,4.44c-0.519-0.504-0.979-0.899-1.392-1.119
	C9.673,9.351,8.288,8.703,6.115,7.896c-0.067,0.719,0.356,1.675,1.571,2.311c-0.263-0.036-0.745,0.043-1.132,0.135
	c0.158,0.824,0.672,1.502,2.06,1.831c-0.634,0.042-0.963,0.187-1.26,0.497c0.289,0.573,0.993,1.248,2.264,1.108
	c-1.411,0.608-0.576,1.732,0.571,1.566c-1.958,2.022-5.044,1.873-6.815,0.182c4.627,6.305,14.687,3.729,16.184-2.343
	c1.124,0.009,1.784-0.39,2.193-0.829C21.104,12.464,20.165,12.35,19.668,12.143z"/>
</svg>
